<svg width="134" height="56" viewBox="0 0 134 56" fill="none" xmlns="http://www.w3.org/2000/svg">
<g clip-path="url(#clip0_1173_5913)">
<path fill-rule="evenodd" clip-rule="evenodd" d="M106.075 56H27.9254C12.5039 56 0 43.4627 0 28C0 12.5373 12.5039 0 27.9254 0H106.144C121.566 0 134.069 12.5373 134.069 28C134.069 43.4627 121.496 56 106.075 56Z" fill="#FFEB00"/>
<path fill-rule="evenodd" clip-rule="evenodd" d="M31.3292 13.4424C22.9238 13.4424 16.1161 18.8056 16.1161 25.4921C16.1161 29.7409 18.9642 33.5021 23.2016 35.6613L21.7428 41.0941C21.6734 41.2334 21.7428 41.4424 21.8818 41.5817C21.9512 41.6513 22.0902 41.721 22.1596 41.721C22.2291 41.721 22.368 41.6513 22.4375 41.6513L28.62 37.4722C29.523 37.6115 30.4261 37.6812 31.3986 37.6812C39.804 37.6812 46.6117 32.2484 46.6117 25.6314C46.6117 18.8056 39.804 13.4424 31.3292 13.4424Z" fill="black"/>
<path d="M59.4629 35.5217V43.3227H53.9056V14.5566H57.7957L58.4904 16.3675C59.6713 15.1834 61.4774 13.9297 64.3255 13.9297C69.7439 13.9297 72.3141 17.9695 72.3141 24.5864C72.3141 31.4819 68.3546 35.87 62.6584 35.87C61.5469 35.9396 60.7133 35.87 59.4629 35.5217ZM59.4629 19.2232V31.6212C59.7408 31.6909 60.5049 31.7605 61.269 31.7605C65.2286 31.7605 66.7569 28.9745 66.7569 24.5864C66.7569 20.7556 65.7149 18.4571 62.5889 18.4571C61.4774 18.4571 60.366 18.7357 59.4629 19.2232Z" fill="black"/>
<path d="M84.3318 22.7062H87.4578V22.0096C87.4578 19.7111 86.1379 18.6663 83.915 18.6663C82.1784 18.6663 80.0249 19.1539 78.2188 20.0594L76.6905 16.3678C78.6356 14.9748 81.6921 14.0693 84.4013 14.0693C89.6807 14.0693 92.5983 16.8554 92.5983 22.2186V35.3828H88.7082L88.1524 33.6415C85.9295 35.2435 83.8455 35.94 82.0394 35.94C78.0104 35.94 75.718 33.5022 75.718 29.3927C75.718 25.0047 78.7051 22.7062 84.3318 22.7062ZM87.5272 30.0196V26.1887H84.957C82.1089 26.1887 80.6501 27.2335 80.6501 29.2534C80.6501 30.7858 81.4142 31.5519 83.0814 31.5519C84.6097 31.6216 86.5547 30.8554 87.5272 30.0196Z" fill="black"/>
<path d="M109.409 33.2239C107.464 38.3781 105.172 42.1393 101.768 44.2288L98.3638 41.0945C100.309 39.3532 101.768 37.6816 102.949 35.4527L95.5852 15.3234L101.073 13.8607L105.797 30.1592L110.451 13.791L115.869 15.3234L109.409 33.2239Z" fill="black"/>
</g>
<defs>
<clipPath id="clip0_1173_5913">
<rect width="134" height="56" fill="white"/>
</clipPath>
</defs>
</svg>
