<svg width="156" height="54" viewBox="0 0 156 54" fill="none" xmlns="http://www.w3.org/2000/svg">
<path d="M3.49493 50.6639V8.61516L15.003 7.61927C15.4825 7.58239 15.9436 7.56394 16.3862 7.56394C16.8288 7.52706 17.2345 7.50862 17.6034 7.50862C19.6321 7.50862 21.4394 7.74837 23.0255 8.22787C24.6484 8.70737 26.4189 9.40819 28.3369 10.3303C30.9188 11.5106 33.0213 12.9676 34.6442 14.7012C36.2671 16.3979 37.4659 18.5003 38.2405 21.0085C39.0151 23.4798 39.4024 26.5043 39.4024 30.0822C39.4024 34.7665 38.6093 38.7132 37.0233 41.9222C35.4741 45.1312 33.3348 47.6025 30.6053 49.3361C27.8758 51.0328 24.7222 52.0471 21.1443 52.3791L9.02766 53.4303L3.49493 50.6639ZM15.5563 49.1148C19.0235 48.8197 22.0849 47.8238 24.7406 46.1271C27.4332 44.4304 29.5357 42.0144 31.0479 38.8792C32.5602 35.744 33.3164 31.8895 33.3164 27.3158C33.3164 21.0454 31.9701 16.2688 29.2775 12.986C26.6217 9.70327 22.6751 8.06189 17.4374 8.06189C17.0686 8.06189 16.6813 8.08033 16.2755 8.11722C15.8698 8.11722 15.4641 8.13566 15.0583 8.17254L4.0482 9.11311V50.0553L15.5563 49.1148ZM12.4026 16.527L14.0071 16.4163C14.4129 16.3794 14.7817 16.361 15.1137 16.361C15.4825 16.3241 15.8514 16.3057 16.2202 16.3057C18.1382 16.3057 19.7058 16.6561 20.923 17.3569C22.1771 18.0577 23.0992 19.2565 23.6894 20.9532C24.3164 22.6499 24.63 25.0289 24.63 28.0904C24.63 32.4428 23.7263 35.6333 21.9189 37.662C20.1116 39.6538 17.6587 40.7788 14.5604 41.037L12.4026 41.203V16.527ZM18.4886 39.4878C20.3698 38.6763 21.7714 37.3669 22.6935 35.5596C23.6156 33.7153 24.0767 31.2256 24.0767 28.0904C24.0767 24.1806 23.5234 21.3773 22.4169 19.6806C22.2693 19.6437 22.1218 19.6253 21.9743 19.6253C21.8267 19.6253 21.6792 19.6253 21.5316 19.6253C21.1997 19.6253 20.8677 19.6437 20.5357 19.6806C20.2407 19.6806 19.9271 19.6991 19.5952 19.736L18.4886 19.7913V39.4878Z" fill="#154D50"/>
<path d="M41.3429 45.248C41.3429 39.8822 45.5014 37.9595 50.3306 37.6465C52.0745 37.5347 55.1151 37.4229 56.1435 37.3782V35.4107C56.1435 33.7116 54.8915 32.7726 52.8346 32.7726C50.8224 32.7726 49.5704 33.6221 49.2574 35.2319H42.2372C42.5502 30.9393 46.2168 27.4068 53.0135 27.4068C59.0053 27.4068 63.7004 30.2685 63.7004 35.5002V52H56.5907V48.6017H56.4118C55.0704 51.061 52.7452 52.4471 49.3469 52.4471C44.6965 52.4471 41.3429 50.0773 41.3429 45.248ZM48.4973 44.935C48.4973 46.5895 49.794 47.4391 51.6273 47.4391C54.1761 47.4391 56.233 45.7846 56.1882 43.37V41.805C55.2716 41.8497 52.7005 41.9615 51.5826 42.0733C49.7046 42.2969 48.4973 43.3253 48.4973 44.935ZM80.0231 27.7198V33.2644H75.5963V44.3985C75.5963 45.9188 76.3565 46.3659 77.6532 46.4106C78.2792 46.4553 79.4865 46.3659 80.3361 46.3212V52.0894C79.6207 52.1789 78.3687 52.3577 76.5801 52.3577C71.259 52.3577 68.0395 50.1667 68.0842 45.248V33.2644H64.82V27.7198H68.0842V21.9068H75.5963V27.7198H80.0231ZM93.0817 52.4471C85.4354 52.4471 80.8745 47.3496 80.8745 39.927C80.8745 32.5043 85.4801 27.4068 93.0817 27.4068C99.7442 27.4068 104.082 31.2523 104.26 37.1546H97.2402C96.8824 34.6953 95.4516 33.1303 93.1711 33.1303C90.3988 33.1303 88.5655 35.5002 88.5655 39.8375C88.5655 44.2196 90.3541 46.5895 93.1711 46.5895C95.3174 46.5895 96.9272 45.2033 97.2402 42.6099H104.26C104.037 48.5122 99.8336 52.4471 93.0817 52.4471ZM113.876 38.0936V52H106.319V19.6264H113.608V32.1466H113.876C114.994 29.1954 117.543 27.4068 121.164 27.4068C126.262 27.4068 129.616 30.984 129.616 36.5286V52H122.059V37.9595C122.103 35.2319 120.628 33.5774 118.079 33.5774C115.575 33.5774 113.876 35.2766 113.876 38.0936ZM131.406 45.248C131.406 39.8822 135.564 37.9595 140.394 37.6465C142.138 37.5347 145.178 37.4229 146.207 37.3782V35.4107C146.207 33.7116 144.955 32.7726 142.898 32.7726C140.886 32.7726 139.634 33.6221 139.321 35.2319H132.3C132.613 30.9393 136.28 27.4068 143.077 27.4068C149.068 27.4068 153.763 30.2685 153.763 35.5002V52H146.654V48.6017H146.475C145.133 51.061 142.808 52.4471 139.41 52.4471C134.76 52.4471 131.406 50.0773 131.406 45.248ZM138.56 44.935C138.56 46.5895 139.857 47.4391 141.69 47.4391C144.239 47.4391 146.296 45.7846 146.251 43.37V41.805C145.335 41.8497 142.764 41.9615 141.646 42.0733C139.768 42.2969 138.56 43.3253 138.56 44.935Z" fill="#154D50"/>
</svg>
