<svg width="156" height="54" viewBox="0 0 156 54" fill="none" xmlns="http://www.w3.org/2000/svg">
<path d="M3.49505 50.6639V8.61516L15.0031 7.61927C15.4826 7.58239 15.9437 7.56394 16.3863 7.56394C16.8289 7.52706 17.2347 7.50862 17.6035 7.50862C19.6322 7.50862 21.4395 7.74837 23.0256 8.22787C24.6485 8.70737 26.419 9.40819 28.337 10.3303C30.919 11.5106 33.0214 12.9676 34.6443 14.7012C36.2673 16.3979 37.466 18.5003 38.2406 21.0085C39.0152 23.4798 39.4025 26.5043 39.4025 30.0822C39.4025 34.7665 38.6095 38.7132 37.0234 41.9222C35.4742 45.1312 33.3349 47.6025 30.6054 49.3361C27.876 51.0328 24.7223 52.0471 21.1445 52.3791L9.02778 53.4303L3.49505 50.6639ZM15.5564 49.1148C19.0236 48.8197 22.085 47.8238 24.7407 46.1271C27.4333 44.4304 29.5358 42.0144 31.0481 38.8792C32.5603 35.744 33.3165 31.8895 33.3165 27.3158C33.3165 21.0454 31.9702 16.2688 29.2776 12.986C26.6219 9.70327 22.6752 8.06189 17.4375 8.06189C17.0687 8.06189 16.6814 8.08033 16.2757 8.11722C15.8699 8.11722 15.4642 8.13566 15.0585 8.17254L4.04832 9.11311V50.0553L15.5564 49.1148ZM12.4027 16.527L14.0072 16.4163C14.413 16.3794 14.7818 16.361 15.1138 16.361C15.4826 16.3241 15.8515 16.3057 16.2203 16.3057C18.1383 16.3057 19.706 16.6561 20.9232 17.3569C22.1772 18.0577 23.0994 19.2565 23.6895 20.9532C24.3166 22.6499 24.6301 25.0289 24.6301 28.0904C24.6301 32.4428 23.7264 35.6333 21.919 37.662C20.1117 39.6538 17.6588 40.7788 14.5605 41.037L12.4027 41.203V16.527ZM18.4888 39.4878C20.3699 38.6763 21.7715 37.3669 22.6936 35.5596C23.6158 33.7153 24.0768 31.2256 24.0768 28.0904C24.0768 24.1806 23.5235 21.3773 22.417 19.6806C22.2695 19.6437 22.1219 19.6253 21.9744 19.6253C21.8268 19.6253 21.6793 19.6253 21.5318 19.6253C21.1998 19.6253 20.8678 19.6437 20.5359 19.6806C20.2408 19.6806 19.9273 19.6991 19.5953 19.736L18.4888 19.7913V39.4878Z" fill="#FDFDFD"/>
<path d="M41.3426 45.248C41.3426 39.8822 45.5011 37.9595 50.3303 37.6465C52.0742 37.5347 55.1148 37.4229 56.1433 37.3782V35.4107C56.1433 33.7116 54.8913 32.7726 52.8344 32.7726C50.8222 32.7726 49.5702 33.6221 49.2572 35.2319H42.2369C42.5499 30.9393 46.2166 27.4068 53.0132 27.4068C59.005 27.4068 63.7001 30.2685 63.7001 35.5002V52H56.5904V48.6017H56.4116C55.0701 51.061 52.7449 52.4471 49.3466 52.4471C44.6963 52.4471 41.3426 50.0773 41.3426 45.248ZM48.497 44.935C48.497 46.5895 49.7938 47.4391 51.6271 47.4391C54.1758 47.4391 56.2327 45.7846 56.188 43.37V41.805C55.2713 41.8497 52.7002 41.9615 51.5824 42.0733C49.7043 42.2969 48.497 43.3253 48.497 44.935ZM80.0229 27.7198V33.2644H75.5961V44.3985C75.5961 45.9188 76.3562 46.3659 77.653 46.4106C78.279 46.4553 79.4863 46.3659 80.3359 46.3212V52.0894C79.6204 52.1789 78.3684 52.3577 76.5798 52.3577C71.2587 52.3577 68.0393 50.1667 68.084 45.248V33.2644H64.8198V27.7198H68.084V21.9068H75.5961V27.7198H80.0229ZM93.0814 52.4471C85.4352 52.4471 80.8742 47.3496 80.8742 39.927C80.8742 32.5043 85.4799 27.4068 93.0814 27.4068C99.744 27.4068 104.081 31.2523 104.26 37.1546H97.2399C96.8822 34.6953 95.4513 33.1303 93.1709 33.1303C90.3985 33.1303 88.5652 35.5002 88.5652 39.8375C88.5652 44.2196 90.3538 46.5895 93.1709 46.5895C95.3172 46.5895 96.9269 45.2033 97.2399 42.6099H104.26C104.037 48.5122 99.8334 52.4471 93.0814 52.4471ZM113.876 38.0936V52H106.319V19.6264H113.607V32.1466H113.876C114.994 29.1954 117.542 27.4068 121.164 27.4068C126.262 27.4068 129.615 30.984 129.615 36.5286V52H122.059V37.9595C122.103 35.2319 120.628 33.5774 118.079 33.5774C115.575 33.5774 113.876 35.2766 113.876 38.0936ZM131.406 45.248C131.406 39.8822 135.564 37.9595 140.393 37.6465C142.137 37.5347 145.178 37.4229 146.206 37.3782V35.4107C146.206 33.7116 144.954 32.7726 142.897 32.7726C140.885 32.7726 139.633 33.6221 139.32 35.2319H132.3C132.613 30.9393 136.28 27.4068 143.076 27.4068C149.068 27.4068 153.763 30.2685 153.763 35.5002V52H146.654V48.6017H146.475C145.133 51.061 142.808 52.4471 139.41 52.4471C134.759 52.4471 131.406 50.0773 131.406 45.248ZM138.56 44.935C138.56 46.5895 139.857 47.4391 141.69 47.4391C144.239 47.4391 146.296 45.7846 146.251 43.37V41.805C145.334 41.8497 142.763 41.9615 141.645 42.0733C139.767 42.2969 138.56 43.3253 138.56 44.935Z" fill="#FDFDFD"/>
</svg>
