<svg width="130" height="56" viewBox="0 0 130 56" fill="none" xmlns="http://www.w3.org/2000/svg">
<rect width="130" height="56" rx="28" fill="#00DE5A"/>
<path d="M115.666 18.132L110.534 29.9559L104.729 18.132H100.269L108.493 34.532L105.1 42.1879H109.434L120 18.132H115.666ZM97.8013 36.4039H93.5625V34.7C92.0359 36.036 90.2013 36.7799 87.9873 36.7799C82.9104 36.7799 78.9479 32.604 78.9479 27.268C78.9479 21.932 82.9183 17.7559 87.9873 17.7559C90.2013 17.7559 92.0359 18.4999 93.5625 19.8359V18.132H97.8013V36.4039ZM94.0607 27.268C94.0607 23.82 91.6803 21.2039 88.5331 21.2039C85.377 21.2039 83.0055 23.82 83.0055 27.268C83.0055 30.716 85.3849 33.332 88.5331 33.332C91.6803 33.332 94.0607 30.716 94.0607 27.268ZM57.8726 42.1879H62.2937V34.86C63.7885 36.1 65.5597 36.7799 67.6866 36.7799C72.7635 36.7799 76.726 32.604 76.726 27.268C76.726 21.932 72.7556 17.7559 67.6866 17.7559C65.4726 17.7559 63.6379 18.4999 62.1114 19.8359V18.132H57.8726V42.1879ZM67.1408 21.2039C70.2969 21.2039 72.6694 23.82 72.6694 27.268C72.6694 30.716 70.2889 33.332 67.1408 33.332C63.9936 33.332 61.6131 30.716 61.6131 27.268C61.6131 23.82 63.9857 21.2039 67.1408 21.2039Z" fill="black"/>
<rect x="10" y="8" width="39.6246" height="40" rx="19.8123" fill="#1C1D1C"/>
<path d="M33.1493 28.66L26.212 18.668H20.4561V37.3318H26.4834V27.3479L33.4207 37.3318H39.1686V18.668H33.1493V28.66Z" fill="#00DE5A"/>
</svg>
