<svg width="31" height="30" viewBox="0 0 31 30" fill="none" xmlns="http://www.w3.org/2000/svg">
<rect x="0.5" width="30" height="30" rx="15" fill="#727472"/>
<path d="M15.5003 24.1663C10.8695 23.1372 7.16699 18.768 7.16699 14.1663V9.16634L15.5003 5.83301L23.8337 9.16634V14.1663C23.8337 18.7697 20.1312 23.1372 15.5003 24.1663ZM8.83366 9.99967V14.1663C8.88128 16.0931 9.55896 17.9512 10.763 19.4562C11.967 20.9612 13.631 22.0303 15.5003 22.4997C17.3697 22.0303 19.0337 20.9612 20.2377 19.4562C21.4417 17.9512 22.1194 16.0931 22.167 14.1663V9.99967L15.5003 7.49967L8.83366 9.99967Z" fill="#FDFDFD"/>
<path d="M15.5003 14.1667C16.6509 14.1667 17.5837 13.2339 17.5837 12.0833C17.5837 10.9327 16.6509 10 15.5003 10C14.3497 10 13.417 10.9327 13.417 12.0833C13.417 13.2339 14.3497 14.1667 15.5003 14.1667Z" fill="#FDFDFD"/>
<path d="M11.333 17.5C11.7436 18.2486 12.3458 18.8746 13.078 19.3139C13.8101 19.7532 14.6459 19.99 15.4997 20C16.3534 19.99 17.1892 19.7532 17.9214 19.3139C18.6535 18.8746 19.2557 18.2486 19.6663 17.5C19.6455 15.92 16.8813 15 15.4997 15C14.1105 15 11.3538 15.92 11.333 17.5Z" fill="#FDFDFD"/>
</svg>
