<svg width="36" height="36" viewBox="0 0 36 36" fill="none" xmlns="http://www.w3.org/2000/svg">
<rect width="36" height="36" rx="18" fill="#66B7B7"/>
<path d="M17.25 14H25.946C26.5708 14 26.8832 14 27.1119 14.1008C28.1236 14.5469 27.6713 15.6707 27.5011 16.4784C27.4705 16.6235 27.371 16.747 27.2316 16.8132C26.6533 17.0876 26.2482 17.6081 26.1419 18.2134L25.5493 21.5878C25.2886 23.0725 25.1995 25.1943 23.8984 26.2402C22.9438 27 21.5684 27 18.8175 27H16.6825C13.9316 27 12.5562 27 11.6016 26.2402C10.3005 25.1942 10.2114 23.0725 9.95066 21.5878L9.35807 18.2134C9.25177 17.6081 8.84673 17.0876 8.26841 16.8132C8.12896 16.747 8.02952 16.6235 7.99894 16.4784C7.82874 15.6707 7.3764 14.5469 8.38812 14.1008C8.61684 14 8.92922 14 9.55397 14H13.25" stroke="#FDFDFD" stroke-width="1.5" stroke-linecap="round"/>
<path d="M19.75 18L15.75 18" stroke="#FDFDFD" stroke-width="1.5" stroke-linecap="round" stroke-linejoin="round"/>
<path d="M12.25 17L15.75 9M20.75 9L23.25 14" stroke="#FDFDFD" stroke-width="1.5" stroke-linecap="round"/>
</svg>
