<svg width="44" height="44" viewBox="0 0 44 44" fill="none" xmlns="http://www.w3.org/2000/svg">
<g filter="url(#filter0_ddd_2264_19254)">
<rect x="4" y="3" width="36" height="36" rx="18" fill="#66B7B7" shape-rendering="crispEdges"/>
<path d="M17.75 24.5H24.1053C28.0319 24.5 28.6291 22.0332 29.3534 18.4354C29.5623 17.3977 29.6668 16.8789 29.4155 16.5332C29.1643 16.1875 28.6828 16.1875 27.7198 16.1875H16" stroke="#FDFDFD" stroke-width="1.5" stroke-linecap="round"/>
<path d="M17.75 24.5L15.4564 13.5756C15.2616 12.7965 14.5617 12.25 13.7586 12.25H12.9375" stroke="#FDFDFD" stroke-width="1.5" stroke-linecap="round"/>
<path d="M18.52 24.5H18.16C16.9671 24.5 16 25.5074 16 26.75C16 26.9571 16.1612 27.125 16.36 27.125H26.0625" stroke="#FDFDFD" stroke-width="1.5" stroke-linecap="round" stroke-linejoin="round"/>
<circle cx="19.9375" cy="28.4375" r="1.3125" stroke="#FDFDFD" stroke-width="1.5"/>
<circle cx="26.0625" cy="28.4375" r="1.3125" stroke="#FDFDFD" stroke-width="1.5"/>
</g>
<defs>
<filter id="filter0_ddd_2264_19254" x="0.25" y="1.78814e-07" width="43.5" height="43.5" filterUnits="userSpaceOnUse" color-interpolation-filters="sRGB">
<feFlood flood-opacity="0" result="BackgroundImageFix"/>
<feColorMatrix in="SourceAlpha" type="matrix" values="0 0 0 0 0 0 0 0 0 0 0 0 0 0 0 0 0 0 127 0" result="hardAlpha"/>
<feOffset dy="0.75"/>
<feGaussianBlur stdDeviation="1.875"/>
<feComposite in2="hardAlpha" operator="out"/>
<feColorMatrix type="matrix" values="0 0 0 0 0 0 0 0 0 0 0 0 0 0 0 0 0 0 0.08 0"/>
<feBlend mode="normal" in2="BackgroundImageFix" result="effect1_dropShadow_2264_19254"/>
<feColorMatrix in="SourceAlpha" type="matrix" values="0 0 0 0 0 0 0 0 0 0 0 0 0 0 0 0 0 0 127 0" result="hardAlpha"/>
<feOffset dy="0.75"/>
<feGaussianBlur stdDeviation="0.9375"/>
<feComposite in2="hardAlpha" operator="out"/>
<feColorMatrix type="matrix" values="0 0 0 0 0 0 0 0 0 0 0 0 0 0 0 0 0 0 0.08 0"/>
<feBlend mode="normal" in2="effect1_dropShadow_2264_19254" result="effect2_dropShadow_2264_19254"/>
<feColorMatrix in="SourceAlpha" type="matrix" values="0 0 0 0 0 0 0 0 0 0 0 0 0 0 0 0 0 0 127 0" result="hardAlpha"/>
<feOffset dy="-0.75"/>
<feGaussianBlur stdDeviation="0.9375"/>
<feComposite in2="hardAlpha" operator="out"/>
<feColorMatrix type="matrix" values="0 0 0 0 0 0 0 0 0 0 0 0 0 0 0 0 0 0 0.08 0"/>
<feBlend mode="normal" in2="effect2_dropShadow_2264_19254" result="effect3_dropShadow_2264_19254"/>
<feBlend mode="normal" in="SourceGraphic" in2="effect3_dropShadow_2264_19254" result="shape"/>
</filter>
</defs>
</svg>
