<svg width="36" height="36" viewBox="0 0 36 36" fill="none" xmlns="http://www.w3.org/2000/svg">
<rect width="36" height="36" rx="18" fill="#66B7B7"/>
<path d="M13.75 21.5H20.1053C24.0319 21.5 24.6291 19.0332 25.3534 15.4354C25.5623 14.3977 25.6668 13.8789 25.4155 13.5332C25.1643 13.1875 24.6828 13.1875 23.7198 13.1875H12" stroke="#FDFDFD" stroke-width="1.5" stroke-linecap="round"/>
<path d="M13.75 21.5L11.4564 10.5756C11.2616 9.79652 10.5617 9.25 9.75864 9.25H8.9375" stroke="#FDFDFD" stroke-width="1.5" stroke-linecap="round"/>
<path d="M14.52 21.5H14.16C12.9671 21.5 12 22.5074 12 23.75C12 23.9571 12.1612 24.125 12.36 24.125H22.0625" stroke="#FDFDFD" stroke-width="1.5" stroke-linecap="round" stroke-linejoin="round"/>
<circle cx="15.9375" cy="25.4375" r="1.3125" stroke="#FDFDFD" stroke-width="1.5"/>
<circle cx="22.0625" cy="25.4375" r="1.3125" stroke="#FDFDFD" stroke-width="1.5"/>
</svg>
