<svg width="13" height="9" viewBox="0 0 13 9" fill="none" xmlns="http://www.w3.org/2000/svg">
<path d="M11.7753 0.757712C11.7011 0.68286 11.6127 0.623447 11.5154 0.582903C11.4181 0.542358 11.3137 0.521484 11.2083 0.521484C11.1029 0.521484 10.9985 0.542358 10.9012 0.582903C10.8038 0.623447 10.7155 0.68286 10.6413 0.757712L4.69162 6.71535L2.19197 4.20771C2.11489 4.13325 2.02389 4.0747 1.92418 4.03541C1.82447 3.99611 1.718 3.97684 1.61084 3.9787C1.50368 3.98055 1.39794 4.00349 1.29965 4.04621C1.20135 4.08893 1.11244 4.15059 1.03798 4.22768C0.963516 4.30476 0.904967 4.39576 0.865672 4.49547C0.826377 4.59518 0.807106 4.70165 0.80896 4.80881C0.810814 4.91597 0.833756 5.02171 0.876477 5.12C0.919197 5.21829 0.980859 5.30721 1.05794 5.38167L4.12461 8.44834C4.19885 8.52319 4.28718 8.5826 4.3845 8.62315C4.48181 8.66369 4.5862 8.68456 4.69162 8.68456C4.79705 8.68456 4.90143 8.66369 4.99875 8.62315C5.09607 8.5826 5.1844 8.52319 5.25864 8.44834L11.7753 1.93167C11.8564 1.85689 11.9211 1.76612 11.9653 1.6651C12.0096 1.56408 12.0324 1.45498 12.0324 1.34469C12.0324 1.2344 12.0096 1.12531 11.9653 1.02428C11.9211 0.92326 11.8564 0.832496 11.7753 0.757712Z" fill=currentColor/>
</svg>
