<svg width="28" height="28" viewBox="0 0 28 28" fill="none" xmlns="http://www.w3.org/2000/svg">
<path d="M13.9998 0.666992C6.65317 0.666992 0.666504 6.65366 0.666504 14.0003C0.666504 21.347 6.65317 27.3337 13.9998 27.3337C21.3465 27.3337 27.3332 21.347 27.3332 14.0003C27.3332 6.65366 21.3465 0.666992 13.9998 0.666992ZM20.3732 10.9337L12.8132 18.4937C12.6265 18.6803 12.3732 18.787 12.1065 18.787C11.8398 18.787 11.5865 18.6803 11.3998 18.4937L7.6265 14.7203C7.23984 14.3337 7.23984 13.6937 7.6265 13.307C8.01317 12.9203 8.65317 12.9203 9.03984 13.307L12.1065 16.3737L18.9598 9.52033C19.3465 9.13366 19.9865 9.13366 20.3732 9.52033C20.7598 9.90699 20.7598 10.5337 20.3732 10.9337Z" fill="#154D50"/>
</svg>
