<svg width="16" height="13" viewBox="0 0 16 13" fill="none" xmlns="http://www.w3.org/2000/svg">
<path fill-rule="evenodd" clip-rule="evenodd" d="M0 11.2273C0 12.2058 0.765714 13 1.712 13H14.288C15.2343 13 16 12.2058 16 11.2273V8.82345C16.0001 8.69361 15.9589 8.56735 15.8827 8.46417C15.8064 8.361 15.6995 8.28665 15.5783 8.25264C15.2064 8.14791 14.8781 7.91958 14.6441 7.60286C14.41 7.28613 14.2832 6.8986 14.2832 6.5C14.2832 6.1014 14.41 5.71386 14.6441 5.39714C14.8781 5.08042 15.2064 4.85209 15.5783 4.74736C15.6995 4.71335 15.8064 4.639 15.8827 4.53583C15.9589 4.43265 16.0001 4.30639 16 4.17655V1.77273C16 0.794182 15.2343 0 14.288 0H1.712C0.765714 0 0 0.794182 0 1.77273V4.17182C0.000151949 4.30228 0.0420509 4.42902 0.119162 4.53228C0.196274 4.63553 0.304262 4.7095 0.426286 4.74264C0.802143 4.84427 1.13481 5.07189 1.37224 5.38987C1.60967 5.70785 1.73846 6.09826 1.73846 6.5C1.73846 6.90174 1.60967 7.29214 1.37224 7.61013C1.13481 7.92811 0.802143 8.15573 0.426286 8.25736C0.304262 8.2905 0.196274 8.36447 0.119162 8.46772C0.0420509 8.57098 0.000151949 8.69772 0 8.82818L0 11.2273ZM5.67086 9.97691L11.3851 4.06782C11.5127 3.92809 11.5825 3.74248 11.5799 3.55037C11.5773 3.35825 11.5024 3.17476 11.3711 3.03883C11.2397 2.90289 11.0624 2.82521 10.8766 2.82228C10.6908 2.81934 10.5113 2.89137 10.376 3.02309L4.66171 8.93218C4.59214 8.99994 4.53642 9.08144 4.49785 9.17187C4.45929 9.26229 4.43866 9.3598 4.4372 9.45862C4.43574 9.55744 4.45347 9.65556 4.48934 9.74716C4.52522 9.83877 4.5785 9.92199 4.64604 9.99192C4.71358 10.0618 4.79401 10.117 4.88255 10.1542C4.97109 10.1914 5.06596 10.2099 5.16152 10.2085C5.25708 10.2071 5.3514 10.1859 5.43889 10.1461C5.52638 10.1063 5.60526 10.0488 5.67086 9.97691ZM4.59543 4.13636C4.59543 3.82293 4.71584 3.52233 4.93016 3.30069C5.14449 3.07906 5.43518 2.95455 5.73829 2.95455C6.04139 2.95455 6.33208 3.07906 6.54641 3.30069C6.76074 3.52233 6.88114 3.82293 6.88114 4.13636C6.88114 4.4498 6.76074 4.7504 6.54641 4.97203C6.33208 5.19367 6.04139 5.31818 5.73829 5.31818C5.43518 5.31818 5.14449 5.19367 4.93016 4.97203C4.71584 4.7504 4.59543 4.4498 4.59543 4.13636ZM9.16686 8.86364C9.16686 8.5502 9.28727 8.2496 9.50159 8.02796C9.71592 7.80633 10.0066 7.68182 10.3097 7.68182C10.6128 7.68182 10.9035 7.80633 11.1178 8.02796C11.3322 8.2496 11.4526 8.5502 11.4526 8.86364C11.4526 9.17707 11.3322 9.47767 11.1178 9.69931C10.9035 9.92094 10.6128 10.0455 10.3097 10.0455C10.0066 10.0455 9.71592 9.92094 9.50159 9.69931C9.28727 9.47767 9.16686 9.17707 9.16686 8.86364Z" fill="currentColor"/>
</svg>
