<svg width="25" height="25" viewBox="0 0 25 25" fill="none" xmlns="http://www.w3.org/2000/svg">
<path d="M23.9916 10.9388C23.991 10.9383 23.9905 10.9377 23.99 10.9372L14.1999 1.14746C13.7826 0.72998 13.2277 0.5 12.6376 0.5C12.0474 0.5 11.4926 0.729797 11.0752 1.14728L1.29019 10.9321C1.28689 10.9354 1.28359 10.9388 1.2803 10.9421C0.423365 11.804 0.424829 13.2024 1.28451 14.0621C1.67727 14.455 2.19601 14.6826 2.75063 14.7064C2.77316 14.7086 2.79586 14.7097 2.81875 14.7097H3.20895V21.9144C3.20895 23.34 4.36892 24.5 5.79495 24.5H9.62514C10.0133 24.5 10.3283 24.1852 10.3283 23.7969V18.1484C10.3283 17.4979 10.8574 16.9687 11.508 16.9687H13.7672C14.4177 16.9687 14.9469 17.4979 14.9469 18.1484V23.7969C14.9469 24.1852 15.2617 24.5 15.65 24.5H19.4802C20.9063 24.5 22.0662 23.34 22.0662 21.9144V14.7097H22.4281C23.018 14.7097 23.5728 14.4799 23.9905 14.0624C24.8511 13.2013 24.8515 11.8005 23.9916 10.9388Z" fill="currentColor"/>
</svg>
