<svg width="25" height="19" viewBox="0 0 25 19" fill="none" xmlns="http://www.w3.org/2000/svg">
<path d="M6.83301 1C6.87227 1 6.91061 1.00511 6.94727 1.01367H22.833C23.6614 1.01367 24.333 1.68524 24.333 2.51367V5.02832C24.333 5.83925 23.6558 6.47301 22.9346 6.84375L22.7402 6.95215C21.788 7.52635 21.1514 8.57065 21.1514 9.76367C21.1514 11.0361 21.8758 12.1387 22.9346 12.6826C23.6559 13.0532 24.333 13.6871 24.333 14.498V17.0137L24.3252 17.167C24.2535 17.873 23.6923 18.4342 22.9863 18.5059L22.833 18.5137H6.94434C6.90856 18.5218 6.87124 18.5273 6.83301 18.5273C6.795 18.5273 6.75823 18.5217 6.72266 18.5137H2.5L2.34668 18.5059C1.64069 18.4342 1.07949 17.873 1.00781 17.167L1 17.0137V14.498C1 13.7883 1.51886 13.2147 2.13184 12.834L2.39844 12.6826C3.45718 12.1387 4.18164 11.0361 4.18164 9.76367C4.18164 8.49122 3.4572 7.38793 2.39844 6.84375C1.6772 6.47298 1 5.83926 1 5.02832V2.51367C1 1.68524 1.67157 1.01367 2.5 1.01367H6.71973C6.75619 1.00518 6.79397 1.00002 6.83301 1ZM2.5 2.01367C2.22386 2.01367 2 2.23753 2 2.51367V5.02832C2 5.25408 2.22566 5.63135 2.85547 5.95508C4.23448 6.66386 5.18164 8.10198 5.18164 9.76367C5.18164 11.4255 4.23449 12.8638 2.85547 13.5723C2.30488 13.8552 2.06275 14.1786 2.01074 14.4062L2 14.498V17.0137C2 17.2898 2.22386 17.5137 2.5 17.5137H6.33301V16.9951C6.33301 16.7191 6.55702 16.4953 6.83301 16.4951C7.10915 16.4951 7.33301 16.719 7.33301 16.9951V17.5137H22.833C23.1092 17.5137 23.333 17.2898 23.333 17.0137V14.498C23.333 14.2723 23.1071 13.8957 22.4775 13.5723C21.0986 12.8638 20.1514 11.4255 20.1514 9.76367C20.1514 8.10195 21.0986 6.66385 22.4775 5.95508C23.1073 5.6314 23.333 5.25407 23.333 5.02832V2.51367C23.333 2.23753 23.1091 2.01367 22.833 2.01367H7.33301V2.5332C7.33277 2.80915 7.10901 3.0332 6.83301 3.0332C6.55716 3.03303 6.33324 2.80904 6.33301 2.5332V2.01367H2.5ZM6.83301 12.3633C7.10915 12.3633 7.33301 12.5871 7.33301 12.8633V14.9287C7.33289 15.2048 7.10908 15.4287 6.83301 15.4287C6.55709 15.4285 6.33312 15.2046 6.33301 14.9287V12.8633C6.33301 12.5872 6.55702 12.3635 6.83301 12.3633ZM18.1152 12.1904C18.3428 12.2373 18.5146 12.4392 18.5146 12.6807C18.5145 12.922 18.3428 13.1241 18.1152 13.1709L18.0146 13.1807H10.7227C10.4466 13.1807 10.2228 12.9567 10.2227 12.6807C10.2227 12.4045 10.4465 12.1807 10.7227 12.1807H18.0146L18.1152 12.1904ZM6.83301 8.23047C7.10901 8.23047 7.33277 8.45453 7.33301 8.73047V10.7969C7.33289 11.0729 7.10908 11.2969 6.83301 11.2969C6.55709 11.2967 6.33312 11.0728 6.33301 10.7969V8.73047C6.33324 8.45463 6.55716 8.23065 6.83301 8.23047ZM16.6572 9.27344C16.8846 9.32034 17.0555 9.52247 17.0557 9.76367C17.0555 10.0048 16.8845 10.206 16.6572 10.2529L16.5557 10.2637H10.7227C10.4466 10.2637 10.2228 10.0397 10.2227 9.76367C10.2228 9.48768 10.4466 9.26367 10.7227 9.26367H16.5557L16.6572 9.27344ZM13.7402 6.35645C13.9678 6.40321 14.1395 6.60535 14.1396 6.84668C14.1396 7.08811 13.9678 7.29008 13.7402 7.33691L13.6396 7.34668H10.7227C10.4465 7.34668 10.2227 7.12282 10.2227 6.84668C10.2228 6.57069 10.4466 6.34668 10.7227 6.34668H13.6396L13.7402 6.35645ZM6.83301 4.09863C7.10904 4.09863 7.33283 4.32264 7.33301 4.59863V6.66504C7.33283 6.94103 7.10904 7.16504 6.83301 7.16504C6.55712 7.16486 6.33318 6.94092 6.33301 6.66504V4.59863C6.33318 4.32275 6.55712 4.09881 6.83301 4.09863ZM20.5957 2.93848C21.3452 3.01442 21.9307 3.64742 21.9307 4.41699C21.9304 5.23743 21.2648 5.9032 20.4443 5.90332C19.675 5.90315 19.0419 5.31766 18.9658 4.56836L18.958 4.41699L18.9658 4.26465C19.042 3.51547 19.6751 2.93083 20.4443 2.93066L20.5957 2.93848ZM20.4443 3.90332C20.1607 3.9035 19.9307 4.13329 19.9307 4.41699L19.9404 4.52051C19.9885 4.7544 20.1963 4.93051 20.4443 4.93066C20.6924 4.93056 20.8991 4.75431 20.9473 4.52051L20.958 4.41699L20.9473 4.31348C20.9063 4.1127 20.7486 3.95421 20.5479 3.91309L20.4443 3.90332Z" fill="#8E918E"/>
<path d="M6.83301 1L6.83301 0.85L6.83291 0.85L6.83301 1ZM6.94727 1.01367L6.91316 1.15974C6.92434 1.16235 6.93579 1.16367 6.94727 1.16367V1.01367ZM24.333 2.51367L24.483 2.51367V2.51367L24.333 2.51367ZM22.9346 6.84375L22.866 6.71027L22.8615 6.71275L22.9346 6.84375ZM22.7402 6.95215L22.6671 6.82107L22.6628 6.8237L22.7402 6.95215ZM22.9346 12.6826L23.0031 12.5492L23.0031 12.5492L22.9346 12.6826ZM24.333 17.0137L24.483 17.0213V17.0137H24.333ZM24.3252 17.167L24.4746 17.1822L24.475 17.1746L24.3252 17.167ZM22.9863 18.5059L22.994 18.6559L23.0015 18.6551L22.9863 18.5059ZM22.833 18.5137V18.6639L22.8406 18.6635L22.833 18.5137ZM6.94434 18.5137V18.3637C6.93315 18.3637 6.92201 18.3649 6.9111 18.3674L6.94434 18.5137ZM6.83301 18.5273L6.83291 18.6773H6.83301V18.5273ZM6.72266 18.5137L6.75579 18.3674C6.74492 18.3649 6.73381 18.3637 6.72266 18.3637V18.5137ZM2.5 18.5137L2.49236 18.6637H2.5V18.5137ZM2.34668 18.5059L2.33151 18.6553L2.33905 18.6557L2.34668 18.5059ZM1.00781 17.167L0.857817 17.1746L0.85858 17.1821L1.00781 17.167ZM1 17.0137H0.849805L0.850194 17.0213L1 17.0137ZM2.13184 12.834L2.05772 12.7034L2.0527 12.7066L2.13184 12.834ZM2.39844 12.6826L2.32983 12.5491L2.32438 12.5522L2.39844 12.6826ZM2.39844 6.84375L2.32986 6.97715L2.32987 6.97716L2.39844 6.84375ZM1 2.51367L0.85 2.51367V2.51367H1ZM2.5 1.01367L2.5 0.863672L2.5 1.01367ZM6.71973 1.01367V1.16367C6.73117 1.16367 6.74259 1.16236 6.75373 1.15977L6.71973 1.01367ZM2.5 2.01367L2.5 1.86367H2.5L2.5 2.01367ZM2 2.51367L1.85 2.51367V2.51367H2ZM2.85547 5.95508L2.7869 6.08849L2.7869 6.08849L2.85547 5.95508ZM2.85547 13.5723L2.78692 13.4388L2.78691 13.4388L2.85547 13.5723ZM2.01074 14.4062L1.86451 14.3729C1.8633 14.3781 1.86239 14.3834 1.86176 14.3888L2.01074 14.4062ZM2 14.498L1.85102 14.4806C1.85034 14.4864 1.85 14.4922 1.85 14.498H2ZM2 17.0137L1.85 17.0137L1.85 17.0137L2 17.0137ZM6.33301 17.5137V17.6637C6.41585 17.6637 6.48301 17.5965 6.48301 17.5137H6.33301ZM6.83301 16.4951L6.83301 16.3451L6.83291 16.3451L6.83301 16.4951ZM7.33301 17.5137H7.18301C7.18301 17.5965 7.25017 17.6637 7.33301 17.6637V17.5137ZM22.833 17.5137L22.833 17.6637H22.833L22.833 17.5137ZM23.333 17.0137L23.483 17.0137V17.0137H23.333ZM22.4775 13.5723L22.5461 13.4388L22.5461 13.4388L22.4775 13.5723ZM22.4775 5.95508L22.409 5.82167L22.409 5.82167L22.4775 5.95508ZM23.333 2.51367L23.483 2.51367L23.483 2.51367L23.333 2.51367ZM7.33301 2.01367V1.86367C7.25017 1.86367 7.18301 1.93083 7.18301 2.01367H7.33301ZM7.33301 2.5332L7.48301 2.53333V2.5332H7.33301ZM6.83301 3.0332L6.83291 3.1832H6.83301V3.0332ZM6.33301 2.5332L6.18301 2.5332L6.18301 2.53333L6.33301 2.5332ZM6.33301 2.01367H6.48301C6.48301 1.93083 6.41585 1.86367 6.33301 1.86367V2.01367ZM6.83301 12.3633L6.83301 12.2133L6.83291 12.2133L6.83301 12.3633ZM7.33301 14.9287L7.48301 14.9288V14.9287H7.33301ZM6.83301 15.4287L6.83291 15.5787H6.83301V15.4287ZM6.33301 14.9287L6.18301 14.9287L6.18301 14.9288L6.33301 14.9287ZM18.1152 12.1904L18.1455 12.0435C18.1403 12.0424 18.135 12.0416 18.1297 12.0411L18.1152 12.1904ZM18.5146 12.6807L18.6646 12.6808V12.6807H18.5146ZM18.1152 13.1709L18.1297 13.3202C18.135 13.3197 18.1402 13.3189 18.1454 13.3178L18.1152 13.1709ZM18.0146 13.1807V13.3307C18.0195 13.3307 18.0243 13.3304 18.0291 13.33L18.0146 13.1807ZM10.2227 12.6807L10.0727 12.6807L10.0727 12.6808L10.2227 12.6807ZM18.0146 12.1807L18.0291 12.0314C18.0243 12.0309 18.0195 12.0307 18.0146 12.0307V12.1807ZM6.83301 8.23047L6.83301 8.08047L6.83291 8.08047L6.83301 8.23047ZM7.33301 8.73047L7.48301 8.73047L7.48301 8.73034L7.33301 8.73047ZM7.33301 10.7969L7.48301 10.7969V10.7969H7.33301ZM6.83301 11.2969L6.83291 11.4469H6.83301V11.2969ZM6.33301 10.7969L6.18301 10.7969L6.18301 10.7969L6.33301 10.7969ZM6.33301 8.73047L6.18301 8.73034V8.73047H6.33301ZM16.6572 9.27344L16.6875 9.12653C16.6823 9.12544 16.6769 9.12464 16.6716 9.12413L16.6572 9.27344ZM17.0557 9.76367L17.2057 9.76377L17.2057 9.76358L17.0557 9.76367ZM16.6572 10.2529L16.673 10.4021C16.6779 10.4016 16.6828 10.4008 16.6876 10.3998L16.6572 10.2529ZM16.5557 10.2637V10.4137C16.5609 10.4137 16.5662 10.4134 16.5714 10.4128L16.5557 10.2637ZM10.2227 9.76367L10.0727 9.76358L10.0727 9.76377L10.2227 9.76367ZM16.5557 9.26367L16.57 9.11436C16.5652 9.1139 16.5605 9.11367 16.5557 9.11367V9.26367ZM13.7402 6.35645L13.7704 6.20952C13.7652 6.20845 13.76 6.20766 13.7547 6.20715L13.7402 6.35645ZM14.1396 6.84668L14.2896 6.84668L14.2896 6.84658L14.1396 6.84668ZM13.7402 7.33691L13.7547 7.48621C13.76 7.4857 13.7653 7.48491 13.7705 7.48384L13.7402 7.33691ZM13.6396 7.34668V7.49668C13.6445 7.49668 13.6493 7.49645 13.6541 7.49598L13.6396 7.34668ZM10.2227 6.84668L10.0727 6.84658V6.84668H10.2227ZM13.6396 6.34668L13.6541 6.19738C13.6493 6.19691 13.6445 6.19668 13.6396 6.19668V6.34668ZM6.83301 4.09863L6.83301 3.94863L6.83291 3.94863L6.83301 4.09863ZM7.33301 4.59863L7.48301 4.59863L7.48301 4.59854L7.33301 4.59863ZM7.33301 6.66504L7.48301 6.66513V6.66504H7.33301ZM6.83301 7.16504L6.83291 7.31504H6.83301V7.16504ZM6.33301 6.66504L6.18301 6.66504L6.18301 6.66513L6.33301 6.66504ZM6.33301 4.59863L6.18301 4.59854V4.59863H6.33301ZM20.5957 2.93848L20.6108 2.78906L20.6034 2.78868L20.5957 2.93848ZM21.9307 4.41699L22.0807 4.41705V4.41699H21.9307ZM20.4443 5.90332L20.4443 6.05332L20.4444 6.05332L20.4443 5.90332ZM18.9658 4.56836L18.8158 4.5761L18.8166 4.58351L18.9658 4.56836ZM18.958 4.41699L18.8082 4.40931C18.8079 4.41444 18.8079 4.41959 18.8082 4.42472L18.958 4.41699ZM18.9658 4.26465L18.8164 4.24945L18.816 4.25697L18.9658 4.26465ZM20.4443 2.93066L20.4521 2.78066L20.4443 2.78066L20.4443 2.93066ZM20.4443 3.90332L20.4584 3.75398C20.4537 3.75354 20.449 3.75332 20.4442 3.75332L20.4443 3.90332ZM19.9307 4.41699H19.78L19.7813 4.43108L19.9307 4.41699ZM19.9404 4.52051L19.7911 4.5346C19.7916 4.54 19.7924 4.54537 19.7935 4.55069L19.9404 4.52051ZM20.4443 4.93066L20.4442 5.08066L20.4444 5.08066L20.4443 4.93066ZM20.9473 4.52051L21.0942 4.55075C21.0952 4.54587 21.096 4.54095 21.0965 4.53599L20.9473 4.52051ZM20.958 4.41699L21.1072 4.43248C21.1083 4.42218 21.1083 4.4118 21.1072 4.40151L20.958 4.41699ZM20.9473 4.31348L21.0965 4.29799C21.096 4.29312 21.0952 4.28827 21.0942 4.28346L20.9473 4.31348ZM20.5479 3.91309L20.578 3.76614C20.5727 3.76505 20.5673 3.76426 20.5619 3.76375L20.5479 3.91309ZM6.83301 1V1.15C6.85927 1.15 6.8861 1.15343 6.91316 1.15974L6.94727 1.01367L6.98137 0.8676C6.93512 0.856802 6.88527 0.85 6.83301 0.85V1ZM6.94727 1.01367V1.16367H22.833V1.01367V0.863672H6.94727V1.01367ZM22.833 1.01367V1.16367C23.5786 1.16367 24.183 1.76809 24.183 2.51367L24.333 2.51367L24.483 2.51367C24.483 1.6024 23.7443 0.863672 22.833 0.863672V1.01367ZM24.333 2.51367H24.183V5.02832H24.333H24.483V2.51367H24.333ZM24.333 5.02832H24.183C24.183 5.75145 23.5735 6.34665 22.866 6.71034L22.9346 6.84375L23.0031 6.97716C23.7381 6.59936 24.483 5.92704 24.483 5.02832H24.333ZM22.9346 6.84375L22.8615 6.71275L22.6672 6.82115L22.7402 6.95215L22.8133 7.08315L23.0076 6.97475L22.9346 6.84375ZM22.7402 6.95215L22.6628 6.8237C21.6674 7.42393 21.0014 8.51593 21.0014 9.76367H21.1514H21.3014C21.3014 8.62536 21.9087 7.62878 22.8177 7.0806L22.7402 6.95215ZM21.1514 9.76367H21.0014C21.0014 11.0945 21.7592 12.2474 22.866 12.816L22.9346 12.6826L23.0031 12.5492C21.9924 12.0299 21.3014 10.9776 21.3014 9.76367H21.1514ZM22.9346 12.6826L22.866 12.816C23.5736 13.1796 24.183 13.7749 24.183 14.498H24.333H24.483C24.483 13.5993 23.7382 12.9269 23.0031 12.5492L22.9346 12.6826ZM24.333 14.498H24.183V17.0137H24.333H24.483V14.498H24.333ZM24.333 17.0137L24.1832 17.006L24.1754 17.1594L24.3252 17.167L24.475 17.1746L24.4828 17.0213L24.333 17.0137ZM24.3252 17.167L24.176 17.1518C24.1115 17.787 23.6063 18.2921 22.9712 18.3566L22.9863 18.5059L23.0015 18.6551C23.7783 18.5762 24.3956 17.959 24.4744 17.1821L24.3252 17.167ZM22.9863 18.5059L22.9787 18.3561L22.8254 18.3639L22.833 18.5137L22.8406 18.6635L22.994 18.6557L22.9863 18.5059ZM22.833 18.5137V18.3637H6.94434V18.5137V18.6637H22.833V18.5137ZM6.94434 18.5137L6.9111 18.3674C6.88268 18.3739 6.85692 18.3773 6.83301 18.3773V18.5273V18.6773C6.88556 18.6773 6.93445 18.6697 6.97757 18.6599L6.94434 18.5137ZM6.83301 18.5273L6.8331 18.3773C6.80962 18.3773 6.78446 18.3739 6.75579 18.3674L6.72266 18.5137L6.68952 18.66C6.73201 18.6696 6.78037 18.6773 6.83291 18.6773L6.83301 18.5273ZM6.72266 18.5137V18.3637H2.5V18.5137V18.6637H6.72266V18.5137ZM2.5 18.5137L2.50763 18.3639L2.35431 18.3561L2.34668 18.5059L2.33905 18.6557L2.49237 18.6635L2.5 18.5137ZM2.34668 18.5059L2.36183 18.3566C1.7267 18.2921 1.22153 17.787 1.15705 17.1518L1.00781 17.167L0.85858 17.1821C0.937453 17.959 1.55468 18.5762 2.33153 18.6551L2.34668 18.5059ZM1.00781 17.167L1.15762 17.1594L1.14981 17.006L1 17.0137L0.850194 17.0213L0.858007 17.1746L1.00781 17.167ZM1 17.0137H1.15V14.498H1H0.85V17.0137H1ZM1 14.498H1.15C1.15 13.8661 1.61437 13.3319 2.21097 12.9614L2.13184 12.834L2.0527 12.7066C1.42334 13.0974 0.85 13.7106 0.85 14.498H1ZM2.13184 12.834L2.2059 12.9644L2.4725 12.8131L2.39844 12.6826L2.32438 12.5522L2.05778 12.7035L2.13184 12.834ZM2.39844 12.6826L2.46698 12.816C3.57375 12.2475 4.33164 11.0945 4.33164 9.76367H4.18164H4.03164C4.03164 10.9777 3.3406 12.03 2.32989 12.5492L2.39844 12.6826ZM4.18164 9.76367H4.33164C4.33164 8.43283 3.57381 7.27921 2.46701 6.71034L2.39844 6.84375L2.32987 6.97716C3.3406 7.49665 4.03164 8.54961 4.03164 9.76367H4.18164ZM2.39844 6.84375L2.46702 6.71035C1.75949 6.34662 1.15 5.75147 1.15 5.02832H1H0.85C0.85 5.92706 1.5949 6.59933 2.32986 6.97715L2.39844 6.84375ZM1 5.02832H1.15V2.51367H1H0.85V5.02832H1ZM1 2.51367L1.15 2.51367C1.15 1.76809 1.75442 1.16367 2.5 1.16367L2.5 1.01367L2.5 0.863672C1.58873 0.863672 0.85 1.6024 0.85 2.51367L1 2.51367ZM2.5 1.01367V1.16367H6.71973V1.01367V0.863672H2.5V1.01367ZM6.71973 1.01367L6.75373 1.15977C6.78098 1.15342 6.80729 1.15002 6.8331 1.15L6.83301 1L6.83291 0.85C6.78066 0.850033 6.73139 0.856947 6.68572 0.867578L6.71973 1.01367ZM2.5 2.01367L2.5 1.86367C2.14102 1.86367 1.85 2.15469 1.85 2.51367L2 2.51367L2.15 2.51367C2.15 2.32037 2.3067 2.16367 2.5 2.16367L2.5 2.01367ZM2 2.51367H1.85V5.02832H2H2.15V2.51367H2ZM2 5.02832H1.85C1.85 5.18776 1.92737 5.37132 2.07608 5.5507C2.22673 5.73241 2.45796 5.91941 2.7869 6.08849L2.85547 5.95508L2.92404 5.82167C2.62317 5.66702 2.42666 5.50352 2.30703 5.35922C2.18546 5.21259 2.15 5.09463 2.15 5.02832H2ZM2.85547 5.95508L2.7869 6.08849C4.11797 6.77263 5.03164 8.16047 5.03164 9.76367H5.18164H5.33164C5.33164 8.04349 4.35099 6.55509 2.92404 5.82167L2.85547 5.95508ZM5.18164 9.76367H5.03164C5.03164 11.367 4.11796 12.755 2.78692 13.4388L2.85547 13.5723L2.92401 13.7057C4.35102 12.9726 5.33164 11.4839 5.33164 9.76367H5.18164ZM2.85547 13.5723L2.78691 13.4388C2.21713 13.7316 1.9305 14.0839 1.86451 14.3729L2.01074 14.4062L2.15698 14.4396C2.19499 14.2732 2.39262 13.9787 2.92402 13.7057L2.85547 13.5723ZM2.01074 14.4062L1.86176 14.3888L1.85102 14.4806L2 14.498L2.14898 14.5155L2.15973 14.4237L2.01074 14.4062ZM2 14.498H1.85V17.0137H2H2.15V14.498H2ZM2 17.0137L1.85 17.0137C1.85 17.3727 2.14102 17.6637 2.5 17.6637V17.5137V17.3637C2.3067 17.3637 2.15 17.207 2.15 17.0137L2 17.0137ZM2.5 17.5137V17.6637H6.33301V17.5137V17.3637H2.5V17.5137ZM6.33301 17.5137H6.48301V16.9951H6.33301H6.18301V17.5137H6.33301ZM6.33301 16.9951H6.48301C6.48301 16.802 6.63978 16.6452 6.8331 16.6451L6.83301 16.4951L6.83291 16.3451C6.47425 16.3453 6.18301 16.6361 6.18301 16.9951H6.33301ZM6.83301 16.4951V16.6451C7.02631 16.6451 7.18301 16.8018 7.18301 16.9951H7.33301H7.48301C7.48301 16.6361 7.19199 16.3451 6.83301 16.3451V16.4951ZM7.33301 16.9951H7.18301V17.5137H7.33301H7.48301V16.9951H7.33301ZM7.33301 17.5137V17.6637H22.833V17.5137V17.3637H7.33301V17.5137ZM22.833 17.5137L22.833 17.6637C23.192 17.6637 23.483 17.3727 23.483 17.0137L23.333 17.0137L23.183 17.0137C23.183 17.207 23.0263 17.3637 22.833 17.3637L22.833 17.5137ZM23.333 17.0137H23.483V14.498H23.333H23.183V17.0137H23.333ZM23.333 14.498H23.483C23.483 14.3385 23.4055 14.1551 23.2568 13.976C23.1061 13.7945 22.8749 13.6078 22.5461 13.4388L22.4775 13.5723L22.409 13.7057C22.7098 13.8602 22.9063 14.0235 23.0259 14.1676C23.1476 14.3141 23.183 14.4318 23.183 14.498H23.333ZM22.4775 13.5723L22.5461 13.4388C21.2151 12.7551 20.3014 11.367 20.3014 9.76367H20.1514H20.0014C20.0014 11.484 20.982 12.9726 22.409 13.7057L22.4775 13.5723ZM20.1514 9.76367H20.3014C20.3014 8.16044 21.2151 6.77262 22.5461 6.08849L22.4775 5.95508L22.409 5.82167C20.9821 6.55508 20.0014 8.04346 20.0014 9.76367H20.1514ZM22.4775 5.95508L22.5461 6.08849C22.875 5.91944 23.1062 5.73243 23.2569 5.55072C23.4056 5.37134 23.483 5.18777 23.483 5.02832H23.333H23.183C23.183 5.09462 23.1475 5.21259 23.026 5.35924C22.9063 5.50354 22.7098 5.66705 22.409 5.82167L22.4775 5.95508ZM23.333 5.02832H23.483V2.51367H23.333H23.183V5.02832H23.333ZM23.333 2.51367L23.483 2.51367C23.483 2.15469 23.192 1.86367 22.833 1.86367V2.01367V2.16367C23.0263 2.16367 23.183 2.32037 23.183 2.51367L23.333 2.51367ZM22.833 2.01367V1.86367H7.33301V2.01367V2.16367H22.833V2.01367ZM7.33301 2.01367H7.18301V2.5332H7.33301H7.48301V2.01367H7.33301ZM7.33301 2.5332L7.18301 2.53308C7.18284 2.7264 7.02604 2.8832 6.83301 2.8832V3.0332V3.1832C7.19197 3.1832 7.4827 2.89189 7.48301 2.53333L7.33301 2.5332ZM6.83301 3.0332L6.8331 2.8832C6.64005 2.88308 6.48317 2.7262 6.48301 2.53308L6.33301 2.5332L6.18301 2.53333C6.18331 2.89188 6.47426 3.18297 6.83291 3.1832L6.83301 3.0332ZM6.33301 2.5332H6.48301V2.01367H6.33301H6.18301V2.5332H6.33301ZM6.33301 2.01367V1.86367H2.5V2.01367V2.16367H6.33301V2.01367ZM6.83301 12.3633V12.5133C7.02631 12.5133 7.18301 12.67 7.18301 12.8633H7.33301H7.48301C7.48301 12.5043 7.19199 12.2133 6.83301 12.2133V12.3633ZM7.33301 12.8633H7.18301V14.9287H7.33301H7.48301V12.8633H7.33301ZM7.33301 14.9287L7.18301 14.9286C7.18293 15.122 7.02617 15.2787 6.83301 15.2787V15.4287V15.5787C7.19198 15.5787 7.48286 15.2875 7.48301 14.9288L7.33301 14.9287ZM6.83301 15.4287L6.8331 15.2787C6.63992 15.2786 6.48309 15.1218 6.48301 14.9286L6.33301 14.9287L6.18301 14.9288C6.18316 15.2875 6.47426 15.5785 6.83291 15.5787L6.83301 15.4287ZM6.33301 14.9287H6.48301V12.8633H6.33301H6.18301V14.9287H6.33301ZM6.33301 12.8633H6.48301C6.48301 12.6702 6.63978 12.5134 6.8331 12.5133L6.83301 12.3633L6.83291 12.2133C6.47425 12.2135 6.18301 12.5043 6.18301 12.8633H6.33301ZM18.1152 12.1904L18.085 12.3374C18.2444 12.3701 18.3646 12.512 18.3646 12.6807H18.5146H18.6646C18.6646 12.3665 18.4412 12.1044 18.1455 12.0435L18.1152 12.1904ZM18.5146 12.6807L18.3646 12.6806C18.3645 12.8494 18.2442 12.9913 18.085 13.024L18.1152 13.1709L18.1454 13.3178C18.4413 13.257 18.6644 12.9946 18.6646 12.6808L18.5146 12.6807ZM18.1152 13.1709L18.1007 13.0216L18.0002 13.0314L18.0146 13.1807L18.0291 13.33L18.1297 13.3202L18.1152 13.1709ZM18.0146 13.1807V13.0307H10.7227V13.1807V13.3307H18.0146V13.1807ZM10.7227 13.1807V13.0307C10.5296 13.0307 10.3728 12.8739 10.3727 12.6806L10.2227 12.6807L10.0727 12.6808C10.0729 13.0394 10.3637 13.3307 10.7227 13.3307V13.1807ZM10.2227 12.6807H10.3727C10.3727 12.4874 10.5294 12.3307 10.7227 12.3307V12.1807V12.0307C10.3637 12.0307 10.0727 12.3217 10.0727 12.6807H10.2227ZM10.7227 12.1807V12.3307H18.0146V12.1807V12.0307H10.7227V12.1807ZM18.0146 12.1807L18.0002 12.33L18.1007 12.3397L18.1152 12.1904L18.1297 12.0411L18.0291 12.0314L18.0146 12.1807ZM6.83301 8.23047V8.38047C7.02604 8.38047 7.18284 8.53727 7.18301 8.7306L7.33301 8.73047L7.48301 8.73034C7.4827 8.37178 7.19197 8.08047 6.83301 8.08047V8.23047ZM7.33301 8.73047H7.18301V10.7969H7.33301H7.48301V8.73047H7.33301ZM7.33301 10.7969L7.18301 10.7968C7.18293 10.9901 7.02617 11.1469 6.83301 11.1469V11.2969V11.4469C7.19198 11.4469 7.48286 11.1557 7.48301 10.7969L7.33301 10.7969ZM6.83301 11.2969L6.8331 11.1469C6.63992 11.1468 6.48309 10.9899 6.48301 10.7968L6.33301 10.7969L6.18301 10.7969C6.18316 11.1557 6.47426 11.4466 6.83291 11.4469L6.83301 11.2969ZM6.33301 10.7969H6.48301V8.73047H6.33301H6.18301V10.7969H6.33301ZM6.33301 8.73047L6.48301 8.7306C6.48317 8.53747 6.64006 8.38059 6.8331 8.38047L6.83301 8.23047L6.83291 8.08047C6.47426 8.0807 6.18331 8.3718 6.18301 8.73034L6.33301 8.73047ZM16.6572 9.27344L16.6269 9.42034C16.7857 9.4531 16.9056 9.59478 16.9057 9.76377L17.0557 9.76367L17.2057 9.76358C17.2055 9.45016 16.9835 9.18759 16.6875 9.12653L16.6572 9.27344ZM17.0557 9.76367L16.9057 9.76358C16.9056 9.93209 16.786 10.0731 16.6269 10.106L16.6572 10.2529L16.6876 10.3998C16.983 10.3388 17.2055 10.0775 17.2057 9.76377L17.0557 9.76367ZM16.6572 10.2529L16.6414 10.1038L16.5399 10.1145L16.5557 10.2637L16.5714 10.4128L16.673 10.4021L16.6572 10.2529ZM16.5557 10.2637V10.1137H10.7227V10.2637V10.4137H16.5557V10.2637ZM10.7227 10.2637V10.1137C10.5296 10.1137 10.3728 9.9569 10.3727 9.76358L10.2227 9.76367L10.0727 9.76377C10.0729 10.1224 10.3637 10.4137 10.7227 10.4137V10.2637ZM10.2227 9.76367L10.3727 9.76377C10.3728 9.57045 10.5296 9.41367 10.7227 9.41367V9.26367V9.11367C10.3637 9.11367 10.0729 9.40491 10.0727 9.76358L10.2227 9.76367ZM10.7227 9.26367V9.41367H16.5557V9.26367V9.11367H10.7227V9.26367ZM16.5557 9.26367L16.5413 9.41298L16.6429 9.42275L16.6572 9.27344L16.6716 9.12413L16.57 9.11436L16.5557 9.26367ZM13.7402 6.35645L13.71 6.50337C13.8692 6.53609 13.9895 6.67799 13.9896 6.84678L14.1396 6.84668L14.2896 6.84658C14.2894 6.5327 14.0663 6.27032 13.7704 6.20952L13.7402 6.35645ZM14.1396 6.84668H13.9896C13.9896 7.01537 13.8694 7.15719 13.71 7.18999L13.7402 7.33691L13.7705 7.48384C14.0662 7.42297 14.2896 7.16085 14.2896 6.84668H14.1396ZM13.7402 7.33691L13.7257 7.18762L13.6252 7.19738L13.6396 7.34668L13.6541 7.49598L13.7547 7.48621L13.7402 7.33691ZM13.6396 7.34668V7.19668H10.7227V7.34668V7.49668H13.6396V7.34668ZM10.7227 7.34668V7.19668C10.5294 7.19668 10.3727 7.03998 10.3727 6.84668H10.2227H10.0727C10.0727 7.20566 10.3637 7.49668 10.7227 7.49668V7.34668ZM10.2227 6.84668L10.3727 6.84678C10.3728 6.65346 10.5296 6.49668 10.7227 6.49668V6.34668V6.19668C10.3637 6.19668 10.0729 6.48792 10.0727 6.84658L10.2227 6.84668ZM10.7227 6.34668V6.49668H13.6396V6.34668V6.19668H10.7227V6.34668ZM13.6396 6.34668L13.6252 6.49598L13.7257 6.50574L13.7402 6.35645L13.7547 6.20715L13.6541 6.19738L13.6396 6.34668ZM6.83301 4.09863V4.24863C7.0261 4.24863 7.18288 4.40541 7.18301 4.59873L7.33301 4.59863L7.48301 4.59854C7.48278 4.23987 7.19198 3.94863 6.83301 3.94863V4.09863ZM7.33301 4.59863H7.18301V6.66504H7.33301H7.48301V4.59863H7.33301ZM7.33301 6.66504L7.18301 6.66494C7.18288 6.85826 7.0261 7.01504 6.83301 7.01504V7.16504V7.31504C7.19198 7.31504 7.48278 7.0238 7.48301 6.66513L7.33301 6.66504ZM6.83301 7.16504L6.8331 7.01504C6.63999 7.01492 6.48313 6.85806 6.48301 6.66494L6.33301 6.66504L6.18301 6.66513C6.18324 7.02379 6.47426 7.31481 6.83291 7.31504L6.83301 7.16504ZM6.33301 6.66504H6.48301V4.59863H6.33301H6.18301V6.66504H6.33301ZM6.33301 4.59863L6.48301 4.59873C6.48313 4.40561 6.63999 4.24876 6.8331 4.24863L6.83301 4.09863L6.83291 3.94863C6.47426 3.94886 6.18324 4.23988 6.18301 4.59854L6.33301 4.59863ZM20.5957 2.93848L20.5806 3.08771C21.2544 3.15598 21.7807 3.72524 21.7807 4.41699H21.9307H22.0807C22.0807 3.56959 21.4361 2.87286 20.6108 2.78924L20.5957 2.93848ZM21.9307 4.41699L21.7807 4.41694C21.7804 5.1546 21.1819 5.75321 20.4443 5.75332L20.4443 5.90332L20.4444 6.05332C21.3477 6.05319 22.0803 5.32025 22.0807 4.41705L21.9307 4.41699ZM20.4443 5.90332L20.4444 5.75332C19.7528 5.75317 19.1834 5.22677 19.1151 4.55321L18.9658 4.56836L18.8166 4.58351C18.9003 5.40855 19.5972 6.05314 20.4443 6.05332L20.4443 5.90332ZM18.9658 4.56836L19.1156 4.56063L19.1078 4.40926L18.958 4.41699L18.8082 4.42472L18.816 4.57609L18.9658 4.56836ZM18.958 4.41699L19.1078 4.42467L19.1156 4.27233L18.9658 4.26465L18.816 4.25697L18.8082 4.40931L18.958 4.41699ZM18.9658 4.26465L19.1151 4.27982C19.1835 3.60647 19.7528 3.08081 20.4444 3.08066L20.4443 2.93066L20.4443 2.78066C19.5974 2.78085 18.9005 3.42446 18.8166 4.24947L18.9658 4.26465ZM20.4443 2.93066L20.4366 3.08046L20.588 3.08828L20.5957 2.93848L20.6034 2.78868L20.4521 2.78086L20.4443 2.93066ZM20.4443 3.90332L20.4442 3.75332C20.0779 3.75355 19.7807 4.05035 19.7807 4.41699H19.9307H20.0807C20.0807 4.21622 20.2434 4.05345 20.4444 4.05332L20.4443 3.90332ZM19.9307 4.41699L19.7813 4.43108L19.7911 4.5346L19.9404 4.52051L20.0898 4.50642L20.08 4.4029L19.9307 4.41699ZM19.9404 4.52051L19.7935 4.55069C19.8556 4.85312 20.1238 5.08047 20.4442 5.08066L20.4443 4.93066L20.4444 4.78066C20.2687 4.78056 20.1213 4.65567 20.0874 4.49033L19.9404 4.52051ZM20.4443 4.93066L20.4444 5.08066C20.7653 5.08053 21.032 4.85262 21.0942 4.55075L20.9473 4.52051L20.8003 4.49026C20.7662 4.65601 20.6195 4.78059 20.4443 4.78066L20.4443 4.93066ZM20.9473 4.52051L21.0965 4.53599L21.1072 4.43248L20.958 4.41699L20.8088 4.40151L20.7981 4.50502L20.9473 4.52051ZM20.958 4.41699L21.1072 4.40151L21.0965 4.29799L20.9473 4.31348L20.7981 4.32896L20.8088 4.43248L20.958 4.41699ZM20.9473 4.31348L21.0942 4.28346C21.0413 4.02413 20.8378 3.81938 20.578 3.76614L20.5479 3.91309L20.5177 4.06003C20.6593 4.08904 20.7713 4.20128 20.8003 4.34349L20.9473 4.31348ZM20.5479 3.91309L20.5619 3.76375L20.4584 3.75398L20.4443 3.90332L20.4302 4.05266L20.5338 4.06242L20.5479 3.91309Z" fill="#8E918E"/>
</svg>
