<svg width="33" height="33" viewBox="0 0 33 33" fill="none" xmlns="http://www.w3.org/2000/svg">
<rect x="1.07503" y="1.07503" width="30.1008" height="30.1008" rx="15.0504" fill="#FDFDFD" stroke="currentColor" stroke-width="current"/>
<path d="M9.84506 24.9713V6.99684L14.7644 6.57113C14.9694 6.55537 15.1664 6.54748 15.3557 6.54748C15.5449 6.53171 15.7183 6.52383 15.876 6.52383C16.7432 6.52383 17.5157 6.62632 18.1937 6.83129C18.8875 7.03626 19.6443 7.33584 20.4642 7.73001C21.5679 8.23456 22.4666 8.85736 23.1604 9.59841C23.8541 10.3237 24.3665 11.2224 24.6976 12.2946C25.0288 13.351 25.1943 14.6439 25.1943 16.1733C25.1943 18.1757 24.8553 19.8628 24.1773 21.2345C23.5151 22.6062 22.6006 23.6626 21.4339 24.4037C20.2671 25.129 18.919 25.5626 17.3896 25.7045L12.2101 26.1538L9.84506 24.9713ZM15.0009 24.3091C16.483 24.183 17.7917 23.7572 18.9269 23.032C20.0779 22.3067 20.9766 21.2739 21.6231 19.9337C22.2695 18.5935 22.5927 16.9459 22.5927 14.9907C22.5927 12.3103 22.0172 10.2685 20.8662 8.86524C19.731 7.46197 18.0439 6.76034 15.805 6.76034C15.6473 6.76034 15.4818 6.76822 15.3084 6.78399C15.1349 6.78399 14.9615 6.79187 14.788 6.80764L10.0816 7.2097V24.7112L15.0009 24.3091ZM13.6528 10.3789L14.3387 10.3316C14.5121 10.3158 14.6698 10.3079 14.8117 10.3079C14.9694 10.2922 15.127 10.2843 15.2847 10.2843C16.1046 10.2843 16.7747 10.4341 17.295 10.7336C17.8311 11.0332 18.2253 11.5456 18.4775 12.2709C18.7456 12.9962 18.8796 14.0132 18.8796 15.3219C18.8796 17.1824 18.4933 18.5462 17.7207 19.4134C16.9481 20.2648 15.8996 20.7457 14.5752 20.8561L13.6528 20.9271V10.3789ZM16.2544 20.1939C17.0585 19.847 17.6576 19.2873 18.0518 18.5147C18.446 17.7263 18.6431 16.6621 18.6431 15.3219C18.6431 13.6505 18.4066 12.4523 17.9336 11.727C17.8705 11.7112 17.8074 11.7033 17.7444 11.7033C17.6813 11.7033 17.6182 11.7033 17.5552 11.7033C17.4133 11.7033 17.2714 11.7112 17.1294 11.727C17.0033 11.727 16.8693 11.7348 16.7274 11.7506L16.2544 11.7743V20.1939Z" fill="currentColor"/>
</svg>
