<svg width="19" height="19" viewBox="0 0 19 19" fill="none" xmlns="http://www.w3.org/2000/svg">
<rect x="0.633333" y="0.633333" width="17.7333" height="17.7333" rx="8.86667" fill="#FDFDFD" stroke="#8E918E" stroke-width="1.26667"/>
<path d="M5.80006 14.7502V4.16087L8.69819 3.91007C8.81895 3.90079 8.93506 3.89614 9.04653 3.89614C9.15799 3.88685 9.26017 3.88221 9.35306 3.88221C9.86395 3.88221 10.3191 3.94259 10.7185 4.06334C11.1272 4.1841 11.5731 4.36059 12.0561 4.59281C12.7063 4.89005 13.2358 5.25696 13.6445 5.69354C14.0532 6.12083 14.3551 6.6503 14.5502 7.28194C14.7453 7.9043 14.8428 8.66599 14.8428 9.56701C14.8428 10.7467 14.6431 11.7406 14.2437 12.5487C13.8535 13.3569 13.3148 13.9792 12.6274 14.4158C11.94 14.8431 11.1458 15.0985 10.2448 15.1821L7.19339 15.4469L5.80006 14.7502ZM8.83753 14.3601C9.71068 14.2858 10.4817 14.035 11.1505 13.6077C11.8285 13.1804 12.358 12.572 12.7389 11.7824C13.1197 10.9929 13.3101 10.0222 13.3101 8.87034C13.3101 7.29123 12.9711 6.08832 12.293 5.26161C11.6242 4.4349 10.6303 4.02154 9.31126 4.02154C9.21837 4.02154 9.12084 4.02619 9.01866 4.03547C8.91648 4.03547 8.8143 4.04012 8.71213 4.04941L5.93939 4.28627V14.5969L8.83753 14.3601ZM8.04333 6.15334L8.44739 6.12547C8.54957 6.11618 8.64246 6.11154 8.72606 6.11154C8.81895 6.10225 8.91184 6.09761 9.00473 6.09761C9.48775 6.09761 9.88253 6.18585 10.1891 6.36234C10.5049 6.53883 10.7371 6.84072 10.8857 7.26801C11.0436 7.6953 11.1226 8.29443 11.1226 9.06541C11.1226 10.1615 10.895 10.965 10.4399 11.4759C9.9847 11.9775 9.36699 12.2608 8.58673 12.3258L8.04333 12.3676V6.15334ZM9.57599 11.9357C10.0497 11.7313 10.4027 11.4016 10.6349 10.9464C10.8671 10.482 10.9833 9.85496 10.9833 9.06541C10.9833 8.08079 10.8439 7.37483 10.5653 6.94754C10.5281 6.93825 10.4909 6.93361 10.4538 6.93361C10.4166 6.93361 10.3795 6.93361 10.3423 6.93361C10.2587 6.93361 10.1751 6.93825 10.0915 6.94754C10.0172 6.94754 9.93826 6.95218 9.85466 6.96147L9.57599 6.97541V11.9357Z" fill="#8E918E"/>
</svg>
