<svg width="16" height="16" viewBox="0 0 16 16" fill="none" xmlns="http://www.w3.org/2000/svg">
<rect x="0.533333" y="0.533333" width="14.9333" height="14.9333" rx="7.46667" fill="#FDFDFD" stroke="url(#paint0_linear_1219_5957)" stroke-width="1.06667"/>
<path d="M4.88431 12.4738V3.55647L7.32484 3.34527C7.42653 3.33745 7.52431 3.33354 7.61817 3.33354C7.71204 3.32572 7.79808 3.32181 7.87631 3.32181C8.30653 3.32181 8.68982 3.37265 9.02617 3.47434C9.37035 3.57603 9.74582 3.72465 10.1526 3.92021C10.7001 4.17052 11.146 4.4795 11.4902 4.84714C11.8344 5.20696 12.0886 5.65283 12.2528 6.18474C12.4171 6.70883 12.4992 7.35025 12.4992 8.10901C12.4992 9.10243 12.3311 9.93941 11.9947 10.6199C11.6662 11.3005 11.2125 11.8246 10.6336 12.1922C10.0548 12.552 9.386 12.7671 8.62724 12.8375L6.05764 13.0605L4.88431 12.4738ZM7.44217 12.1453C8.17746 12.0827 8.82671 11.8715 9.38991 11.5117C9.96093 11.1519 10.4068 10.6395 10.7275 9.97461C11.0482 9.30972 11.2086 8.4923 11.2086 7.52234C11.2086 6.19256 10.9231 5.17958 10.352 4.48341C9.78884 3.78723 8.95186 3.43914 7.84111 3.43914C7.76288 3.43914 7.68075 3.44305 7.59471 3.45087C7.50866 3.45087 7.42262 3.45479 7.33657 3.46261L5.00164 3.66207V12.3447L7.44217 12.1453ZM6.77337 5.23434L7.11364 5.21087C7.19968 5.20305 7.27791 5.19914 7.34831 5.19914C7.42653 5.19132 7.50475 5.18741 7.58297 5.18741C7.98973 5.18741 8.32217 5.26172 8.58031 5.41034C8.84626 5.55896 9.04182 5.81318 9.16697 6.17301C9.29995 6.53283 9.36644 7.03736 9.36644 7.68661C9.36644 8.60963 9.1748 9.28625 8.79151 9.71647C8.40822 10.1389 7.88804 10.3775 7.23097 10.4322L6.77337 10.4674V5.23434ZM8.06404 10.1037C8.46297 9.93159 8.76022 9.6539 8.95577 9.27061C9.15133 8.8795 9.24911 8.3515 9.24911 7.68661C9.24911 6.85745 9.13177 6.26296 8.89711 5.90314C8.86582 5.89532 8.83453 5.89141 8.80324 5.89141C8.77195 5.89141 8.74066 5.89141 8.70937 5.89141C8.63897 5.89141 8.56857 5.89532 8.49817 5.90314C8.4356 5.90314 8.36911 5.90705 8.29871 5.91487L8.06404 5.92661V10.1037Z" fill="url(#paint1_linear_1219_5957)"/>
<defs>
<linearGradient id="paint0_linear_1219_5957" x1="11.2958" y1="1.74074" x2="-2.16661" y2="6.3707" gradientUnits="userSpaceOnUse">
<stop stop-color="#2F8C8E"/>
<stop offset="1" stop-color="#205F60"/>
</linearGradient>
<linearGradient id="paint1_linear_1219_5957" x1="10.4873" y1="2.63856" x2="2.54724" y2="4.6866" gradientUnits="userSpaceOnUse">
<stop stop-color="#2F8C8E"/>
<stop offset="1" stop-color="#205F60"/>
</linearGradient>
</defs>
</svg>
