<svg width="16" height="17" viewBox="0 0 16 17" fill="none" xmlns="http://www.w3.org/2000/svg">
<rect y="0.5" width="16" height="16" rx="3.2" fill="currentColor"/>
<path d="M4.10338 13.2991V3.57111L6.76578 3.34071C6.87671 3.33217 6.98338 3.32791 7.08578 3.32791C7.18818 3.31937 7.28205 3.31511 7.36738 3.31511C7.83671 3.31511 8.25485 3.37057 8.62178 3.48151C8.99725 3.59244 9.40685 3.75457 9.85058 3.96791C10.4479 4.24097 10.9343 4.57804 11.3098 4.97911C11.6852 5.37164 11.9626 5.85804 12.1418 6.43831C12.321 7.01004 12.4106 7.70977 12.4106 8.53751C12.4106 9.62124 12.2271 10.5343 11.8602 11.2767C11.5018 12.0191 11.0068 12.5908 10.3754 12.9919C9.74391 13.3844 9.01431 13.6191 8.18658 13.6959L5.38338 13.9391L4.10338 13.2991ZM6.89378 12.9407C7.69591 12.8724 8.40418 12.642 9.01858 12.2495C9.64151 11.857 10.1279 11.298 10.4778 10.5727C10.8276 9.84737 11.0026 8.95564 11.0026 7.89751C11.0026 6.44684 10.6911 5.34177 10.0682 4.58231C9.45378 3.82284 8.54071 3.44311 7.32898 3.44311C7.24365 3.44311 7.15405 3.44737 7.06018 3.45591C6.96631 3.45591 6.87245 3.46017 6.77858 3.46871L4.23138 3.68631V13.1583L6.89378 12.9407ZM6.16418 5.40151L6.53538 5.37591C6.62925 5.36737 6.71458 5.36311 6.79138 5.36311C6.87671 5.35457 6.96205 5.35031 7.04738 5.35031C7.49111 5.35031 7.85378 5.43137 8.13538 5.59351C8.42551 5.75564 8.63885 6.03297 8.77538 6.42551C8.92045 6.81804 8.99298 7.36844 8.99298 8.07671C8.99298 9.08364 8.78391 9.82177 8.36578 10.2911C7.94765 10.7519 7.38018 11.0122 6.66338 11.0719L6.16418 11.1103V5.40151ZM7.57218 10.7135C8.00738 10.5258 8.33165 10.2228 8.54498 9.80471C8.75831 9.37804 8.86498 8.80204 8.86498 8.07671C8.86498 7.17217 8.73698 6.52364 8.48098 6.13111C8.44685 6.12257 8.41271 6.11831 8.37858 6.11831C8.34445 6.11831 8.31031 6.11831 8.27618 6.11831C8.19938 6.11831 8.12258 6.12257 8.04578 6.13111C7.97751 6.13111 7.90498 6.13537 7.82818 6.14391L7.57218 6.15671V10.7135Z" fill="white"/>
</svg>
