<svg width="14" height="15" viewBox="0 0 14 15" fill="none" xmlns="http://www.w3.org/2000/svg">
<path d="M7 0.833008C3.32667 0.833008 0.333336 3.82634 0.333336 7.49967C0.333336 11.173 3.32667 14.1663 7 14.1663C10.6733 14.1663 13.6667 11.173 13.6667 7.49967C13.6667 3.82634 10.6733 0.833008 7 0.833008ZM9.24 9.03301C9.43334 9.22634 9.43334 9.54634 9.24 9.73967C9.14 9.83967 9.01334 9.88634 8.88667 9.88634C8.76 9.88634 8.63334 9.83967 8.53334 9.73967L7 8.20634L5.46667 9.73967C5.36667 9.83967 5.24 9.88634 5.11334 9.88634C4.98667 9.88634 4.86 9.83967 4.76 9.73967C4.66702 9.64558 4.61487 9.51863 4.61487 9.38634C4.61487 9.25405 4.66702 9.1271 4.76 9.03301L6.29334 7.49967L4.76 5.96634C4.66702 5.87225 4.61487 5.74529 4.61487 5.61301C4.61487 5.48072 4.66702 5.35377 4.76 5.25967C4.95334 5.06634 5.27334 5.06634 5.46667 5.25967L7 6.79301L8.53334 5.25967C8.72667 5.06634 9.04667 5.06634 9.24 5.25967C9.43334 5.45301 9.43334 5.77301 9.24 5.96634L7.70667 7.49967L9.24 9.03301Z" fill="currentColor"/>
</svg>
