<svg width="22" height="18" viewBox="0 0 22 18" fill="none" xmlns="http://www.w3.org/2000/svg">
<path fill-rule="evenodd" clip-rule="evenodd" d="M1.21967 1.21967C2.20818 0.231164 3.75536 0 5.75 0H15.75C17.7446 0 19.2918 0.231164 20.2803 1.21967C21.2688 2.20818 21.5 3.75536 21.5 5.75V6.75C21.5 7.16421 21.1642 7.5 20.75 7.5C19.7842 7.5 19 8.28421 19 9.25C19 10.2158 19.7842 11 20.75 11C21.1642 11 21.5 11.3358 21.5 11.75C21.5 13.7446 21.2688 15.2918 20.2803 16.2803C19.2918 17.2688 17.7446 17.5 15.75 17.5H5.75C3.75536 17.5 2.20818 17.2688 1.21967 16.2803C0.231164 15.2918 0 13.7446 0 11.75V11.25C0 10.8358 0.335786 10.5 0.75 10.5C1.71579 10.5 2.5 9.71579 2.5 8.75C2.5 7.78421 1.71579 7 0.75 7C0.335786 7 0 6.66421 0 6.25V5.75C0 3.75536 0.231164 2.20818 1.21967 1.21967ZM1.50061 5.5872C2.93324 5.92623 4 7.21412 4 8.75C4 10.2859 2.93324 11.5738 1.50061 11.9128C1.51494 13.8073 1.78288 14.7222 2.28033 15.2197C2.79182 15.7312 3.74464 16 5.75 16H15.75C17.7554 16 18.7082 15.7312 19.2197 15.2197C19.6714 14.7679 19.9339 13.9718 19.989 12.4103C18.5616 12.0676 17.5 10.7822 17.5 9.25C17.5 7.7139 18.5671 6.42586 20 6.08706V5.75C20 3.74464 19.7312 2.79182 19.2197 2.28033C18.7082 1.76884 17.7554 1.5 15.75 1.5H5.75C3.74464 1.5 2.79182 1.76884 2.28033 2.28033C1.78288 2.77778 1.51494 3.69266 1.50061 5.5872Z" fill="#8E918E"/>
<path fill-rule="evenodd" clip-rule="evenodd" d="M14.2803 4.96967C14.5732 5.26256 14.5732 5.73744 14.2803 6.03033L8.28033 12.0303C7.98744 12.3232 7.51256 12.3232 7.21967 12.0303C6.92678 11.7374 6.92678 11.2626 7.21967 10.9697L13.2197 4.96967C13.5126 4.67678 13.9874 4.67678 14.2803 4.96967Z" fill="#8E918E"/>
<path fill-rule="evenodd" clip-rule="evenodd" d="M12.7445 11.5C12.7445 10.9477 13.1922 10.5 13.7445 10.5H13.7535C14.3058 10.5 14.7535 10.9477 14.7535 11.5C14.7535 12.0523 14.3058 12.5 13.7535 12.5H13.7445C13.1922 12.5 12.7445 12.0523 12.7445 11.5Z" fill="#8E918E"/>
<path fill-rule="evenodd" clip-rule="evenodd" d="M6.74451 6C6.74451 5.44772 7.19222 5 7.74451 5H7.75349C8.30577 5 8.75349 5.44772 8.75349 6C8.75349 6.55228 8.30577 7 7.75349 7H7.74451C7.19222 7 6.74451 6.55228 6.74451 6Z" fill="#8E918E"/>
</svg>
