<svg width="20" height="20" viewBox="0 0 20 20" fill="none" xmlns="http://www.w3.org/2000/svg">
<path d="M18.3333 14.582H12.5" stroke="#393A39" stroke-width="1.2" stroke-miterlimit="10" stroke-linecap="round" stroke-linejoin="round"/>
<path d="M4.16675 14.582H1.66675" stroke="#393A39" stroke-width="1.2" stroke-miterlimit="10" stroke-linecap="round" stroke-linejoin="round"/>
<path d="M18.3333 5.41797H15.8333" stroke="#393A39" stroke-width="1.2" stroke-miterlimit="10" stroke-linecap="round" stroke-linejoin="round"/>
<path d="M7.50008 5.41797H1.66675" stroke="#393A39" stroke-width="1.2" stroke-miterlimit="10" stroke-linecap="round" stroke-linejoin="round"/>
<path d="M5.83341 12.082H10.8334C11.7501 12.082 12.5001 12.4987 12.5001 13.7487V15.4154C12.5001 16.6654 11.7501 17.082 10.8334 17.082H5.83341C4.91675 17.082 4.16675 16.6654 4.16675 15.4154V13.7487C4.16675 12.4987 4.91675 12.082 5.83341 12.082Z" stroke="#393A39" stroke-width="1.2" stroke-miterlimit="10" stroke-linecap="round" stroke-linejoin="round"/>
<path d="M9.16667 2.91797H14.1667C15.0833 2.91797 15.8333 3.33464 15.8333 4.58464V6.2513C15.8333 7.5013 15.0833 7.91797 14.1667 7.91797H9.16667C8.25 7.91797 7.5 7.5013 7.5 6.2513V4.58464C7.5 3.33464 8.25 2.91797 9.16667 2.91797Z" stroke="#393A39" stroke-width="1.2" stroke-miterlimit="10" stroke-linecap="round" stroke-linejoin="round"/>
</svg>
