<svg width="19" height="18" viewBox="0 0 19 18" fill="none" xmlns="http://www.w3.org/2000/svg">
<path d="M10.4672 6.33501C10.4672 5.94962 10.1548 5.63719 9.76936 5.63719H4.18687C3.80148 5.63719 3.48906 5.94962 3.48906 6.33501C3.48906 6.7204 3.80148 7.03282 4.18687 7.03282H9.76936C10.1548 7.03282 10.4672 6.7204 10.4672 6.33501Z" fill="#8E918E"/>
<path d="M9.53676 9.12625C9.53676 8.74086 9.22434 8.42844 8.83895 8.42844H4.18687C3.80148 8.42844 3.48906 8.74086 3.48906 9.12625C3.48906 9.51164 3.80148 9.82406 4.18687 9.82406H8.83895C9.22434 9.82406 9.53676 9.51164 9.53676 9.12625Z" fill="#8E918E"/>
<path d="M9.76936 11.2197C10.1548 11.2197 10.4672 11.5321 10.4672 11.9175C10.4672 12.3029 10.1548 12.6153 9.76936 12.6153H4.18687C3.80148 12.6153 3.48906 12.3029 3.48906 11.9175C3.48906 11.5321 3.80148 11.2197 4.18687 11.2197H9.76936Z" fill="#8E918E"/>
<path fill-rule="evenodd" clip-rule="evenodd" d="M3.48906 17.5H15.5845C16.9976 17.5 18.1431 16.3545 18.1431 14.9414V9.82407C18.1431 9.43868 17.8307 9.12626 17.4453 9.12626H14.4214V1.86268C14.4214 0.538326 12.9245 -0.232027 11.8468 0.537739L11.684 0.654072C10.9578 1.17277 9.97413 1.17103 9.24454 0.649895C8.03141 -0.216632 6.39004 -0.216632 5.1769 0.649895C4.44731 1.17103 3.46366 1.17277 2.73748 0.654072L2.57461 0.537739C1.49694 -0.232027 0 0.538327 0 1.86268V14.0109C0 15.9379 1.5621 17.5 3.48906 17.5ZM5.98809 1.78556C6.71597 1.26564 7.70547 1.26564 8.43335 1.78556C9.64478 2.65087 11.2803 2.65748 12.4951 1.78974L12.658 1.6734C12.812 1.56344 13.0258 1.67349 13.0258 1.86268V14.9414C13.0258 15.3601 13.1264 15.7554 13.3048 16.1044H3.48906C2.33289 16.1044 1.39562 15.1671 1.39562 14.0109V1.86268C1.39562 1.67349 1.60947 1.56344 1.76343 1.6734L1.92629 1.78974C3.14113 2.65748 4.77666 2.65087 5.98809 1.78556ZM14.4214 14.9414V10.5219H16.7475V14.9414C16.7475 15.5837 16.2268 16.1044 15.5845 16.1044C14.9421 16.1044 14.4214 15.5837 14.4214 14.9414Z" fill="#8E918E"/>
</svg>
