<svg width="41" height="40" viewBox="0 0 41 40" fill="none" xmlns="http://www.w3.org/2000/svg">
<path d="M29.5666 15.5503H27.7333V10.6669C27.7333 8.74853 26.9712 6.9087 25.6147 5.55219C24.2582 4.19567 22.4183 3.43359 20.4999 3.43359C18.5815 3.43359 16.7417 4.19567 15.3852 5.55219C14.0287 6.9087 13.2666 8.74853 13.2666 10.6669V15.5503H11.4333C10.3282 15.5503 9.26839 15.9892 8.48699 16.7706C7.70559 17.5521 7.2666 18.6119 7.2666 19.7169V32.4003C7.26968 33.5044 7.70966 34.5624 8.49039 35.3431C9.27113 36.1239 10.3291 36.5638 11.4333 36.5669H29.5666C30.6707 36.5638 31.7287 36.1239 32.5095 35.3431C33.2902 34.5624 33.7302 33.5044 33.7333 32.4003V19.7169C33.7333 18.6119 33.2943 17.5521 32.5129 16.7706C31.7315 15.9892 30.6717 15.5503 29.5666 15.5503ZM14.9333 10.6669C14.9333 9.19056 15.5198 7.77465 16.5637 6.7307C17.6077 5.68675 19.0236 5.10026 20.4999 5.10026C21.9763 5.10026 23.3922 5.68675 24.4362 6.7307C25.4801 7.77465 26.0666 9.19056 26.0666 10.6669V15.5503H14.9333V10.6669ZM32.0666 32.4003C32.0622 33.062 31.7974 33.6953 31.3295 34.1632C30.8616 34.6311 30.2283 34.8959 29.5666 34.9003H11.4333C10.7716 34.8959 10.1382 34.6311 9.67033 34.1632C9.20243 33.6953 8.93764 33.062 8.93327 32.4003V19.7169C8.93327 19.0539 9.19666 18.418 9.6655 17.9492C10.1343 17.4803 10.7702 17.2169 11.4333 17.2169H29.5666C30.2296 17.2169 30.8655 17.4803 31.3344 17.9492C31.8032 18.418 32.0666 19.0539 32.0666 19.7169V32.4003Z" fill="currentColor"/>
<path d="M22.1664 24.9167C22.168 25.2082 22.0916 25.4949 21.9451 25.7469C21.7986 25.999 21.5872 26.2072 21.333 26.35V28.85C21.333 29.071 21.2452 29.283 21.089 29.4393C20.9327 29.5955 20.7207 29.6833 20.4997 29.6833C20.2787 29.6833 20.0667 29.5955 19.9104 29.4393C19.7542 29.283 19.6664 29.071 19.6664 28.85V26.35C19.4122 26.2072 19.2009 25.999 19.0543 25.7469C18.9078 25.4949 18.8314 25.2082 18.833 24.9167C18.833 24.4746 19.0086 24.0507 19.3212 23.7382C19.6338 23.4256 20.0577 23.25 20.4997 23.25C20.9417 23.25 21.3657 23.4256 21.6782 23.7382C21.9908 24.0507 22.1664 24.4746 22.1664 24.9167Z" fill="currentColor"/>
</svg>
