<svg width="17" height="16" viewBox="0 0 17 16" fill="none" xmlns="http://www.w3.org/2000/svg">
<path d="M15.1663 7.99967H7.24967M13.4997 10.4997L15.9997 7.99967L13.4997 5.49967M9.33301 3.83301V2.99967C9.33301 2.55765 9.15741 2.13372 8.84485 1.82116C8.53229 1.5086 8.10837 1.33301 7.66634 1.33301H3.49967C3.05765 1.33301 2.63372 1.5086 2.32116 1.82116C2.0086 2.13372 1.83301 2.55765 1.83301 2.99967V12.9997C1.83301 13.4417 2.0086 13.8656 2.32116 14.1782C2.63372 14.4907 3.05765 14.6663 3.49967 14.6663H7.66634C8.10837 14.6663 8.53229 14.4907 8.84485 14.1782C9.15741 13.8656 9.33301 13.4417 9.33301 12.9997V12.1663" stroke="currentColor" stroke-width="2" stroke-linecap="round" stroke-linejoin="round"/>
</svg>
