<svg width="18" height="19" viewBox="0 0 18 19" fill="none" xmlns="http://www.w3.org/2000/svg">
<path d="M11.1053 1.3579C10.4466 1.12673 9.73802 1.00098 9 1.00098C5.50032 1.00098 2.66326 3.82865 2.66326 7.31677C2.66319 8.21936 2.61071 9.06773 2.08262 9.84553C1.67944 10.4322 1.13525 11.0329 1.0252 11.7543C0.846121 12.9283 1.64674 13.7431 2.62699 14.1491C6.3851 15.706 11.6149 15.706 15.373 14.1491C16.3533 13.7431 17.1539 12.9283 16.9748 11.7543C16.8907 11.203 16.553 10.7221 16.2185 10.2641" stroke="currentColor" stroke-width="1.26316" stroke-linecap="round" stroke-linejoin="round"/>
<path d="M17.0002 5.63194C17.0002 4.00415 15.6806 2.68457 14.0528 2.68457C12.4251 2.68457 11.1055 4.00415 11.1055 5.63194C11.1055 7.25973 12.4251 8.57931 14.0528 8.57931C15.6806 8.57931 17.0002 7.25973 17.0002 5.63194Z" fill="#E94E4E"/>
<path d="M5.63184 15.3164C6.01793 16.7692 7.37965 17.8427 9.00026 17.8427C10.6209 17.8427 11.9826 16.7692 12.3687 15.3164" stroke="currentColor" stroke-width="1.26316" stroke-linecap="round" stroke-linejoin="round"/>
</svg>
