<svg width="18" height="20" viewBox="0 0 18 20" fill="none" xmlns="http://www.w3.org/2000/svg">
<path d="M1.0252 12.3334C0.846121 13.5074 1.64674 14.3222 2.62699 14.7282C6.3851 16.2851 11.6149 16.2851 15.373 14.7282C16.3533 14.3222 17.1539 13.5074 16.9748 12.3334C16.8647 11.612 16.3206 11.0113 15.9174 10.4246C15.3893 9.64683 15.3368 8.79846 15.3367 7.89587C15.3367 4.40775 12.4997 1.58008 9 1.58008C5.50032 1.58008 2.66326 4.40775 2.66326 7.89587C2.66319 8.79846 2.61071 9.64683 2.08262 10.4246C1.67944 11.0113 1.13525 11.612 1.0252 12.3334Z" stroke="#030F0F" stroke-width="1.26316" stroke-linecap="round" stroke-linejoin="round"/>
<path d="M5.63135 15.8955C6.01744 17.3483 7.37916 18.4218 8.99977 18.4218C10.6204 18.4218 11.9821 17.3483 12.3682 15.8955" stroke="#030F0F" stroke-width="1.26316" stroke-linecap="round" stroke-linejoin="round"/>
</svg>
