<svg width="16" height="16" viewBox="0 0 16 16" fill="none" xmlns="http://www.w3.org/2000/svg">
<path d="M2.98401 8.625V8.628C2.96717 8.69151 2.93797 8.75109 2.89809 8.80331C2.85821 8.85553 2.80843 8.89938 2.75159 8.93235C2.69475 8.96532 2.63197 8.98676 2.56684 8.99546C2.50171 9.00415 2.4355 8.99991 2.37201 8.983C1.94101 8.869 2.01701 8.372 2.01701 8.372L2.03501 8.31C2.03501 8.31 2.06101 8.226 2.08201 8.165C2.33863 7.44549 2.71641 6.77516 3.19901 6.183C4.09601 5.089 5.60501 4 8.00001 4C10.395 4 11.904 5.089 12.802 6.183C13.2846 6.77516 13.6624 7.44549 13.919 8.165C13.9405 8.22683 13.9605 8.28919 13.979 8.352L13.982 8.365V8.369L13.983 8.371C14.0147 8.49827 13.9952 8.6329 13.9285 8.74588C13.8619 8.85886 13.7536 8.94114 13.6269 8.97498C13.5001 9.00883 13.3652 8.99153 13.2511 8.92681C13.137 8.86209 13.053 8.75513 13.017 8.629L13.016 8.625L13.008 8.6L12.973 8.491C12.755 7.88352 12.4355 7.31748 12.028 6.817C11.286 5.912 10.045 5 8.00001 5C5.95501 5 4.71501 5.912 3.97201 6.817C3.56451 7.31748 3.24496 7.88352 3.02701 8.491L2.99201 8.6L2.98401 8.625ZM5.50001 9.5C5.50001 8.83696 5.7634 8.20107 6.23224 7.73223C6.70108 7.26339 7.33697 7 8.00001 7C8.66305 7 9.29893 7.26339 9.76777 7.73223C10.2366 8.20107 10.5 8.83696 10.5 9.5C10.5 10.163 10.2366 10.7989 9.76777 11.2678C9.29893 11.7366 8.66305 12 8.00001 12C7.33697 12 6.70108 11.7366 6.23224 11.2678C5.7634 10.7989 5.50001 10.163 5.50001 9.5Z" fill="currentColor"/>
</svg>
