<svg width="16" height="16" viewBox="0 0 16 16" fill="none" xmlns="http://www.w3.org/2000/svg">
<path d="M10.12 10.8267L14.146 14.8537C14.1925 14.9001 14.2477 14.937 14.3084 14.9622C14.3692 14.9873 14.4343 15.0003 14.5 15.0003C14.5658 15.0003 14.6309 14.9873 14.6916 14.9622C14.7523 14.937 14.8075 14.9001 14.854 14.8537C14.9005 14.8072 14.9374 14.752 14.9625 14.6912C14.9877 14.6305 15.0007 14.5654 15.0007 14.4997C15.0007 14.4339 14.9877 14.3688 14.9625 14.3081C14.9374 14.2473 14.9005 14.1921 14.854 14.1457L1.85402 1.14566C1.80753 1.09917 1.75234 1.06229 1.6916 1.03713C1.63087 1.01197 1.56577 0.999023 1.50002 0.999023C1.43428 0.999023 1.36918 1.01197 1.30844 1.03713C1.2477 1.06229 1.19251 1.09917 1.14602 1.14566C1.09953 1.19214 1.06266 1.24733 1.0375 1.30807C1.01234 1.36881 0.99939 1.43391 0.99939 1.49966C0.99939 1.5654 1.01234 1.6305 1.0375 1.69124C1.06266 1.75198 1.09953 1.80717 1.14602 1.85366L4.37602 5.08366C3.9365 5.3952 3.54095 5.76452 3.20002 6.18166C2.71742 6.77381 2.33964 7.44414 2.08302 8.16365C2.06202 8.22465 2.03602 8.30866 2.03602 8.30866L2.01802 8.37066C2.01802 8.37066 1.94202 8.86766 2.37302 8.98166C2.50112 9.01551 2.63741 8.99714 2.75198 8.93058C2.86654 8.86402 2.95 8.75471 2.98402 8.62666L2.98502 8.62365L2.99302 8.59866L3.02802 8.48966C3.24598 7.88218 3.56552 7.31613 3.97302 6.81566C4.29405 6.42257 4.67306 6.08065 5.09702 5.80166L6.67502 7.37966C6.35658 7.57924 6.08724 7.84805 5.88703 8.16609C5.68681 8.48414 5.56088 8.84322 5.51859 9.21665C5.4763 9.59008 5.51875 9.96824 5.64277 10.323C5.76679 10.6778 5.9692 11 6.23494 11.2657C6.50068 11.5315 6.82292 11.7339 7.17768 11.8579C7.53244 11.9819 7.9106 12.0244 8.28402 11.9821C8.65745 11.9398 9.01654 11.8139 9.33458 11.6136C9.65262 11.4134 9.92144 11.1441 10.121 10.8257M9.38102 10.0857C9.28515 10.3117 9.13525 10.5108 8.94449 10.6654C8.75372 10.82 8.52792 10.9254 8.2869 10.9723C8.04589 11.0193 7.79703 11.0063 7.56218 10.9347C7.32733 10.863 7.11367 10.7347 6.93995 10.5612C6.76624 10.3877 6.63778 10.1741 6.56586 9.93936C6.49394 9.70458 6.48075 9.45574 6.52746 9.21468C6.57417 8.97361 6.67934 8.7477 6.83375 8.55678C6.98815 8.36585 7.18706 8.21575 7.41302 8.11966L9.38102 10.0857ZM6.32002 4.19965L7.17402 5.05366C7.43402 5.01766 7.70935 4.99966 8.00002 4.99966C10.044 4.99966 11.286 5.91166 12.028 6.81666C12.4355 7.31713 12.7551 7.88318 12.973 8.49066C12.9897 8.53932 13.0014 8.57566 13.008 8.59966L13.016 8.62466V8.62766L13.017 8.62865C13.054 8.75345 13.1382 8.8589 13.2518 8.92259C13.3653 8.98628 13.4992 9.00319 13.6249 8.96972C13.7507 8.93626 13.8585 8.85505 13.9254 8.74337C13.9923 8.63169 14.0129 8.49834 13.983 8.37165V8.36866L13.982 8.36466L13.978 8.35166C13.9611 8.28838 13.9411 8.22597 13.918 8.16466C13.6614 7.44514 13.2836 6.77481 12.801 6.18266C11.905 5.08866 10.396 3.99966 8.00202 3.99966C7.38402 3.99966 6.82502 4.07165 6.32102 4.19865" fill="currentColor"/>
</svg>
