<svg width="19" height="19" viewBox="0 0 19 19" fill="none" xmlns="http://www.w3.org/2000/svg">
<path d="M2.375 16.625L6.33333 12.6666" stroke="#1C1D1C" stroke-width="1.1875" stroke-linecap="round" stroke-linejoin="round"/>
<path d="M10.4964 14.9398C7.533 14.267 4.73309 11.4671 4.06025 8.50369C3.95374 8.03458 3.90048 7.80002 4.05477 7.41948C4.20906 7.03894 4.39753 6.92119 4.77447 6.6857C5.62658 6.15335 6.54926 5.98411 7.50681 6.06881C8.85044 6.18765 9.52226 6.24707 9.85739 6.07246C10.1925 5.89785 10.4203 5.48955 10.8757 4.67296L11.4527 3.63853C11.8328 2.9571 12.0229 2.61638 12.4699 2.45576C12.917 2.29515 13.186 2.39241 13.7241 2.58694C14.9824 3.04186 15.9583 4.01775 16.4132 5.27605C16.6077 5.81413 16.705 6.08317 16.5444 6.53022C16.3838 6.97727 16.0431 7.16732 15.3616 7.54742L14.3033 8.13769C13.4883 8.5923 13.0808 8.81961 12.9062 9.15802C12.7317 9.49643 12.7951 10.1536 12.9219 11.468C13.0151 12.4345 12.8544 13.3633 12.3149 14.226C12.0792 14.6029 11.9613 14.7914 11.5809 14.9455C11.2004 15.0997 10.9658 15.0464 10.4964 14.9398Z" fill="#D71826" stroke="#D71826" stroke-width="1.1875" stroke-linecap="round" stroke-linejoin="round"/>
</svg>
