<svg width="20" height="20" viewBox="0 0 20 20" fill="none" xmlns="http://www.w3.org/2000/svg">
<path fill-rule="evenodd" clip-rule="evenodd" d="M15.7273 16.0525L3 5.10575L4.28565 3.99996L17.0129 14.9467L15.7273 16.0525Z" fill="#E94E4E"/>
<path fill-rule="evenodd" clip-rule="evenodd" d="M1.81818 10C1.81818 14.5187 5.48131 18.1818 10 18.1818C14.5187 18.1818 18.1818 14.5187 18.1818 10C18.1818 5.48131 14.5187 1.81818 10 1.81818C5.48131 1.81818 1.81818 5.48131 1.81818 10ZM10 20C4.47715 20 -2.27534e-07 15.5228 -5.08212e-07 10C-7.8889e-07 4.47715 4.47715 -7.6437e-07 10 -9.72009e-07C15.5228 -1.17965e-06 20 4.47715 20 10C20 15.5228 15.5228 20 10 20Z" fill="#E94E4E"/>
</svg>
