<svg width="17" height="17" viewBox="0 0 17 17" fill="none" xmlns="http://www.w3.org/2000/svg">
<g clip-path="url(#clip0_1901_6526)">
<path d="M12.9802 8.93112C12.9814 8.23695 12.8453 7.5494 12.5797 6.90802C12.3142 6.26664 11.9245 5.68407 11.4331 5.19382C10.4417 4.20267 9.09719 3.64587 7.69531 3.64587C6.29343 3.64587 4.94895 4.20267 3.95754 5.19382C2.96595 6.18566 2.40851 7.53048 2.40763 8.93297C2.40675 10.3355 2.96249 11.681 3.95283 12.6741C4.946 13.6645 6.29165 14.2202 7.69426 14.2193C9.09687 14.2183 10.4418 13.6607 11.4335 12.6689" stroke="black" stroke-width="1.2" stroke-miterlimit="10" stroke-linecap="round"/>
<path d="M14.9749 6.25321L13.604 8.51973C13.4826 8.72068 13.2864 8.86526 13.0585 8.92173C12.8305 8.9782 12.5895 8.94196 12.3883 8.82095L10.1175 7.44398" stroke="black" stroke-width="1.5" stroke-linecap="round" stroke-linejoin="round"/>
</g>
<defs>
<clipPath id="clip0_1901_6526">
<rect width="16" height="16" fill="white" transform="translate(0.313477 0.313477)"/>
</clipPath>
</defs>
</svg>
