<svg width="25" height="25" viewBox="0 0 25 25" fill="none" xmlns="http://www.w3.org/2000/svg">
<path fill-rule="evenodd" clip-rule="evenodd" d="M12.6396 2.68182C7.21722 2.68182 2.82147 7.07757 2.82147 12.5C2.82147 17.9224 7.21722 22.3182 12.6396 22.3182C18.0621 22.3182 22.4578 17.9224 22.4578 12.5C22.4578 7.07757 18.0621 2.68182 12.6396 2.68182ZM0.639648 12.5C0.639648 5.87258 6.01223 0.5 12.6396 0.5C19.2671 0.5 24.6396 5.87258 24.6396 12.5C24.6396 19.1274 19.2671 24.5 12.6396 24.5C6.01223 24.5 0.639648 19.1274 0.639648 12.5Z" fill="currentColor"/>
<path fill-rule="evenodd" clip-rule="evenodd" d="M4.23242 19.3645L19.5051 4.0918L21.0479 5.63458L5.7752 20.9073L4.23242 19.3645Z" fill="currentColor"/>
</svg>
