<svg width="10" height="6" viewBox="0 0 10 6" fill="none" xmlns="http://www.w3.org/2000/svg">
<path d="M0.500301 6H9.50056C9.59168 5.99977 9.681 5.97963 9.7589 5.94174C9.8368 5.90386 9.90034 5.84967 9.94267 5.78499C9.98499 5.72032 10.0045 5.64763 9.99912 5.57473C9.99373 5.50183 9.96363 5.43149 9.91207 5.37128L5.41194 0.161989C5.22544 -0.0539963 4.77642 -0.0539963 4.58942 0.161989L0.0892894 5.37128C0.0372003 5.43136 0.00665413 5.50174 0.00096949 5.57476C-0.00471515 5.64778 0.0146792 5.72065 0.0570455 5.78546C0.0994117 5.85027 0.163129 5.90453 0.241276 5.94235C0.319422 5.98018 0.409008 6.00011 0.500301 6Z" fill="currentColor"/>
</svg>
