<svg width="30" height="30" viewBox="0 0 30 30" fill="none" xmlns="http://www.w3.org/2000/svg">
<path d="M17.1595 4.30522L19.3593 8.74109C19.6593 9.35859 20.4592 9.95088 21.1341 10.0643L25.1212 10.7322C27.6709 11.1607 28.2708 13.0257 26.4335 14.8656L23.3339 17.9909C22.8089 18.5202 22.5214 19.5409 22.6839 20.2718L23.5713 24.1406C24.2713 27.2029 22.6589 28.3875 19.9717 26.787L16.2346 24.5565C15.5597 24.1532 14.4473 24.1532 13.7599 24.5565L10.0228 26.787C7.34813 28.3875 5.72331 27.1903 6.42323 24.1406L7.31063 20.2718C7.47312 19.5409 7.18565 18.5202 6.66071 17.9909L3.56105 14.8656C1.73625 13.0257 2.32369 11.1607 4.8734 10.7322L8.86046 10.0643C9.52289 9.95088 10.3228 9.35859 10.6228 8.74109L12.8225 4.30522C14.0224 1.89826 15.9722 1.89826 17.1595 4.30522Z" fill="#66B7B7" stroke="#2F8C8E" stroke-width="1.66667" stroke-linecap="round" stroke-linejoin="round"/>
</svg>
