<svg width="30" height="31" viewBox="0 0 30 31" fill="none" xmlns="http://www.w3.org/2000/svg">
<path d="M2.5 15.5005C2.5 14.1198 3.61929 13.0005 5 13.0005C7.07107 13.0005 8.75 14.6794 8.75 16.7505V21.7505C8.75 23.8216 7.07107 25.5005 5 25.5005C3.61929 25.5005 2.5 24.3812 2.5 23.0005V15.5005Z" fill="#BE9EFF" stroke="#984FF1" stroke-width="2.125" stroke-linecap="round" stroke-linejoin="round"/>
<path d="M19.3479 9.63282L19.0151 10.7079C18.7423 11.5889 18.6059 12.0294 18.7108 12.3772C18.7956 12.6587 18.9819 12.9013 19.2358 13.0609C19.5495 13.2582 20.0242 13.2582 20.9734 13.2582H21.4784C24.691 13.2582 26.2973 13.2582 27.056 14.2091C27.1427 14.3178 27.2198 14.4334 27.2865 14.5546C27.8702 15.6152 27.2066 17.0439 25.8795 19.9014C24.6616 22.5236 24.0527 23.8347 22.922 24.6064C22.8126 24.6812 22.7001 24.7516 22.5849 24.8177C21.3946 25.5 19.9197 25.5 16.97 25.5H16.3303C12.7567 25.5 10.9699 25.5 9.85969 24.4243C8.74951 23.3487 8.74951 21.6174 8.74951 18.1549V16.9379C8.74951 15.1183 8.74951 14.2085 9.07244 13.3757C9.39536 12.543 10.0137 11.8583 11.2504 10.4889L16.3647 4.8257C16.4929 4.68367 16.5571 4.61265 16.6136 4.56344C17.1414 4.1041 17.956 4.1558 18.4175 4.67793C18.467 4.73387 18.521 4.81239 18.629 4.96942C18.798 5.21506 18.8826 5.33788 18.9562 5.45957C19.6156 6.54891 19.815 7.84296 19.513 9.07144C19.4793 9.20865 19.4355 9.35012 19.3479 9.63282Z" fill="#BE9EFF" stroke="#984FF1" stroke-width="2.125" stroke-linecap="round" stroke-linejoin="round"/>
</svg>
