<svg width="22" height="22" viewBox="0 0 22 22" fill="none" xmlns="http://www.w3.org/2000/svg">
<path d="M16.5002 1.47388C18.1593 2.43182 19.5395 3.80646 20.504 5.46171C21.4686 7.11696 21.9842 8.99543 21.9996 10.9112C22.0151 12.8269 21.53 14.7134 20.5923 16.384C19.6546 18.0547 18.2968 19.4514 16.6534 20.436C15.0099 21.4206 13.1379 21.959 11.2224 21.9977C9.30703 22.0365 7.4147 21.5744 5.73278 20.657C4.05086 19.7397 2.63769 18.3991 1.63315 16.7677C0.628616 15.1364 0.0675511 13.2711 0.00550019 11.3563L0 10.9999L0.00550019 10.6435C0.0671044 8.74377 0.61991 6.89244 1.61002 5.26997C2.60014 3.64751 3.99377 2.30928 5.65505 1.38575C7.31633 0.462226 9.18857 -0.0150819 11.0892 0.00036327C12.9899 0.0158084 14.8541 0.523479 16.5002 1.47388ZM11.0001 4.39988C10.7307 4.39992 10.4707 4.49883 10.2693 4.67787C10.068 4.8569 9.93934 5.1036 9.90782 5.37118L9.90012 5.49988V10.9999L9.91002 11.144C9.9351 11.3348 10.0098 11.5158 10.1267 11.6687L10.2224 11.7787L13.5225 15.0787L13.6259 15.1689C13.8188 15.3186 14.056 15.3998 14.3002 15.3998C14.5443 15.3998 14.7816 15.3186 14.9745 15.1689L15.0779 15.0776L15.1692 14.9742C15.3189 14.7813 15.4001 14.544 15.4001 14.2999C15.4001 14.0557 15.3189 13.8185 15.1692 13.6256L15.0779 13.5222L12.1001 10.5434V5.49988L12.0924 5.37118C12.0609 5.1036 11.9323 4.8569 11.731 4.67787C11.5296 4.49883 11.2696 4.39992 11.0001 4.39988Z" fill="#66B7B7"/>
</svg>
