<svg width="30" height="31" viewBox="0 0 30 31" fill="none" xmlns="http://www.w3.org/2000/svg">
<path d="M8.22197 19.227C6.45351 20.28 1.81671 22.4301 4.64083 25.1207C6.02039 26.435 7.55686 27.375 9.48859 27.375H20.5114C22.4431 27.375 23.9796 26.435 25.3592 25.1207C28.1833 22.4301 23.5465 20.28 21.778 19.227C17.631 16.7577 12.369 16.7577 8.22197 19.227Z" fill="#9CA8F9" stroke="#4165EB" stroke-width="1.5" stroke-linecap="round" stroke-linejoin="round"/>
<path d="M20.625 8.625C20.625 11.7316 18.1066 14.25 15 14.25C11.8934 14.25 9.375 11.7316 9.375 8.625C9.375 5.5184 11.8934 3 15 3C18.1066 3 20.625 5.5184 20.625 8.625Z" fill="#9CA8F9" stroke="#4165EB" stroke-width="1.5"/>
</svg>
