<svg width="25" height="25" viewBox="0 0 25 25" fill="none" xmlns="http://www.w3.org/2000/svg">
<g clip-path="url(#clip0_509_4014)">
<path d="M12.4701 12.0609C14.0583 12.0609 15.4337 11.4912 16.5574 10.3673C17.6811 9.24362 18.2507 7.86868 18.2507 6.28025C18.2507 4.69237 17.6811 3.31725 16.5572 2.19317C15.4333 1.06964 14.0582 0.5 12.4701 0.5C10.8817 0.5 9.50671 1.06964 8.383 2.19335C7.25928 3.31707 6.68945 4.69218 6.68945 6.28025C6.68945 7.86868 7.25928 9.2438 8.38318 10.3675C9.50708 11.491 10.8822 12.0609 12.4701 12.0609Z" fill="currentColor"/>
<path d="M22.5842 18.9546C22.5518 18.487 22.4862 17.9768 22.3897 17.4381C22.2923 16.8954 22.1669 16.3824 22.0167 15.9134C21.8616 15.4288 21.6507 14.9501 21.39 14.4914C21.1193 14.0154 20.8015 13.6008 20.4448 13.2597C20.0718 12.9028 19.6151 12.6159 19.087 12.4066C18.5608 12.1984 17.9776 12.093 17.3538 12.093C17.1088 12.093 16.8718 12.1935 16.4142 12.4914C16.1326 12.675 15.8032 12.8874 15.4355 13.1224C15.1212 13.3227 14.6953 13.5104 14.1692 13.6803C13.6559 13.8464 13.1348 13.9306 12.6205 13.9306C12.1061 13.9306 11.5852 13.8464 11.0714 13.6803C10.5459 13.5106 10.12 13.3229 9.80597 13.1226C9.44177 12.8898 9.11218 12.6774 8.82635 12.4912C8.36932 12.1933 8.1322 12.0928 7.88721 12.0928C7.26318 12.0928 6.68018 12.1984 6.15411 12.4068C5.6264 12.6157 5.16956 12.9026 4.7962 13.2599C4.4397 13.6012 4.12164 14.0156 3.85138 14.4914C3.59082 14.9501 3.37988 15.4286 3.22461 15.9136C3.07465 16.3826 2.94922 16.8954 2.85181 17.4381C2.75531 17.9761 2.68976 18.4864 2.65735 18.9552C2.62549 19.4144 2.60938 19.891 2.60938 20.3724C2.60938 21.6252 3.00763 22.6394 3.79297 23.3874C4.5686 24.1255 5.59491 24.4999 6.84296 24.4999H18.3991C19.6472 24.4999 20.6731 24.1257 21.4489 23.3874C22.2344 22.64 22.6327 21.6256 22.6327 20.3722C22.6325 19.8886 22.6162 19.4117 22.5842 18.9546Z" fill="currentColor"/>
</g>
<defs>
<clipPath id="clip0_509_4014">
<rect width="24" height="24" fill="white" transform="translate(0.640625 0.5)"/>
</clipPath>
</defs>
</svg>
