<svg width="64" height="64" viewBox="0 0 64 64" fill="none" xmlns="http://www.w3.org/2000/svg">
<rect width="63.3333" height="63.3333" rx="12.6667" fill="url(#paint0_linear_406_3410)"/>
<path d="M16.2427 51.1637V12.657L26.7813 11.745C27.2204 11.7112 27.6427 11.6943 28.048 11.6943C28.4533 11.6606 28.8249 11.6437 29.1627 11.6437C31.0204 11.6437 32.6756 11.8632 34.128 12.3023C35.6142 12.7414 37.2356 13.3832 38.992 14.2277C41.3564 15.3085 43.2818 16.6428 44.768 18.2303C46.2542 19.7841 47.352 21.7094 48.0613 24.0063C48.7707 26.2694 49.1253 29.0392 49.1253 32.3157C49.1253 36.6054 48.3991 40.2197 46.9467 43.1583C45.528 46.097 43.5689 48.3601 41.0693 49.9477C38.5698 51.5014 35.6818 52.4303 32.4053 52.7343L21.3093 53.697L16.2427 51.1637ZM27.288 49.745C30.4631 49.4748 33.2667 48.5628 35.6987 47.009C38.1644 45.4552 40.0898 43.2428 41.4747 40.3717C42.8596 37.5006 43.552 33.9708 43.552 29.7823C43.552 24.0401 42.3191 19.6659 39.8533 16.6597C37.4213 13.6534 33.8071 12.1503 29.0107 12.1503C28.6729 12.1503 28.3182 12.1672 27.9467 12.201C27.5751 12.201 27.2036 12.2179 26.832 12.2517L16.7493 13.113V50.6063L27.288 49.745ZM24.4 19.9023L25.8693 19.801C26.2409 19.7672 26.5787 19.7503 26.8827 19.7503C27.2204 19.7166 27.5582 19.6997 27.896 19.6997C29.6524 19.6997 31.088 20.0206 32.2027 20.6623C33.3511 21.3041 34.1956 22.4019 34.736 23.9557C35.3102 25.5094 35.5973 27.6881 35.5973 30.4917C35.5973 34.4774 34.7698 37.3992 33.1147 39.257C31.4596 41.081 29.2133 42.1112 26.376 42.3477L24.4 42.4997V19.9023ZM29.9733 40.929C31.696 40.1859 32.9796 38.9868 33.824 37.3317C34.6684 35.6428 35.0907 33.3628 35.0907 30.4917C35.0907 26.9112 34.584 24.3441 33.5707 22.7903C33.4356 22.7566 33.3004 22.7397 33.1653 22.7397C33.0302 22.7397 32.8951 22.7397 32.76 22.7397C32.456 22.7397 32.152 22.7566 31.848 22.7903C31.5778 22.7903 31.2907 22.8072 30.9867 22.841L29.9733 22.8917V40.929Z" fill="white"/>
<defs>
<linearGradient id="paint0_linear_406_3410" x1="44.7127" y1="6.89044" x2="-8.57616" y2="25.2173" gradientUnits="userSpaceOnUse">
<stop stop-color="#154D50"/>
<stop offset="1" stop-color="#1C2C3A"/>
</linearGradient>
</defs>
</svg>
